<?xml version="1.0" encoding="UTF-8"?>
<svg id="Layer_1" data-name="Layer 1" width="24" height="24" xmlns="http://www.w3.org/2000/svg" viewBox="0 0 14.07 20">
  <path d="m7.04,0C4.42,0,2.29,2.13,2.29,4.75s2.01,4.65,4.63,4.74c.08,0,.16,0,.22,0,.02,0,.03,0,.05,0,0,0,.01,0,.02,0,2.56-.09,4.57-2.17,4.58-4.74,0-2.62-2.13-4.75-4.75-4.75Z"/>
  <path d="m12.11,12.16c-2.79-1.86-7.34-1.86-10.15,0,0,0,0,0,0,0C.69,13,0,14.15,0,15.39c0,1.23.7,2.37,1.96,3.21,1.4.94,3.24,1.41,5.08,1.41s3.68-.47,5.08-1.41c1.26-.85,1.96-1.99,1.96-3.23,0-1.23-.7-2.37-1.96-3.21Zm-2.75,2.4l-2.52,2.52c-.12.12-.28.18-.44.18s-.32-.07-.44-.18l-1.26-1.26c-.24-.24-.24-.64,0-.88.24-.24.64-.24.88,0l.82.82,2.08-2.08c.24-.24.64-.24.88,0,.24.24.24.64,0,.88Z" style="fill: #010101;"/>
  <path d="m3.04,13.5s.44,5.38,1.48,4.94,5.83-3.05,5.83-3.05l.4-1.88-2.2-.5-5.51.5Z" style="fill: #010101;"/>
</svg>