<?xml version="1.0" encoding="UTF-8"?>
<svg id="Layer_1" data-name="Layer 1" width="24" height="24" xmlns="http://www.w3.org/2000/svg" viewBox="0 0 383.26 188.69">
  <path d="m0,37.45c2.33-5,6.26-6.86,11.73-6.71,9.19.25,18.39.07,27.99.07,0-6.8-.01-13.25,0-19.7C39.74,3.26,42.99,0,50.86,0,144.65,0,238.43,0,332.22,0c8.14,0,11.28,3.17,11.31,11.31.02,6.11.03,12.22.06,18.33,0,.23.14.45.38,1.17,1.16,0,2.48,0,3.81,0,8.61,0,17.21-.08,25.82.03,5.97.08,9.62,3.7,9.63,9.61.05,35.92.05,71.84,0,107.76,0,6.05-3.72,9.59-9.98,9.64-9.72.08-19.43.02-29.71.02,0,5.62,0,11.06,0,16.49,0,1.87.09,3.75-.05,5.61-.38,5.09-3.89,8.45-9,8.69-1.12.05-2.24.02-3.37.02-93.04,0-186.08,0-279.12,0-9.45,0-12.27-2.82-12.27-12.23,0-5.98,0-11.96,0-18.58-1.69,0-3.24,0-4.79,0-7.73,0-15.47-.19-23.2.06-5.46.18-9.4-1.7-11.73-6.7V37.45Zm273.36,68.12c0,4.3-.05,8.03,0,11.77.11,7.23,4.81,12.27,11.35,12.23,6.6-.04,11.03-4.96,11.09-12.37.03-3.82,0-7.64,0-11.63,3.94,0,7.3.04,10.66,0,6.96-.1,11.82-4.82,11.77-11.34-.05-6.36-4.87-10.98-11.63-11.09-3.46-.06-6.92-.01-10.8-.01,0-4.07.02-7.78,0-11.49-.05-7.46-4.39-12.4-10.95-12.51-6.69-.11-11.41,4.98-11.49,12.46-.04,3.71,0,7.42,0,11.33h-53.73c-.2-.33-.41-.64-.58-.97-5.59-11.08-14.45-17.38-26.98-17.56-12.52-.18-21.54,5.82-27.56,16.71-.57,1.04-2.44,1.93-3.72,1.94-15.97.13-31.93.09-47.9.07-.95,0-1.9-.17-3.01-.27,0-4.01.05-7.74-.01-11.48-.11-7.26-4.78-12.26-11.34-12.23-6.59.03-11.04,4.96-11.1,12.36-.03,3.82,0,7.64,0,11.64-3.93,0-7.29-.04-10.65,0-6.96.1-11.83,4.8-11.78,11.32.05,6.35,4.87,11,11.61,11.12,3.46.06,6.93.01,10.83.01,0,4.56-.07,8.77.02,12.97.1,4.85,2.5,8.31,6.92,10.18,7.49,3.16,15.21-2.27,15.48-10.85.12-4.05.02-8.1.02-12.19h53.68c.25.42.46.73.63,1.06,5.6,11.07,14.45,17.4,26.98,17.57,12.51.17,21.54-5.82,27.56-16.72.57-1.04,2.45-1.9,3.73-1.93,8.85-.17,17.71-.09,26.57-.09,7.96,0,15.91,0,24.33,0Z"/>
</svg>