<?xml version="1.0" encoding="UTF-8"?>
<svg id="Layer_1" data-name="Layer 1" width="24" height="24" xmlns="http://www.w3.org/2000/svg" viewBox="0 0 191.91 347.03">
  <path d="m144.02,239.11c3.9.21,7.31.07,10.61.61,17.52,2.85,30.62,17.68,31.18,35.98.19,6.13-.62,12.5-2.25,18.41-2.99,10.83-11.22,16.91-22.5,17.8-2.74.22-5.5.08-8.24.21-4.46.21-7.65,2.64-8.95,6.7-1.24,3.87-.1,7.48,3.58,10.17,7.58,5.53,16.54,7.42,25.51,9.11,5.03.95,10.12,1.55,15.2,2.2,2.29.29,4.22,1.33,3.64,3.66-.32,1.28-2.45,2.99-3.8,3.02-14.12.34-27.96-1.31-40.91-7.43-18.35-8.68-28.03-23.8-31.5-43.24-1.67-9.35-2.64-18.78-.28-28.22,2.23-8.91,6.88-16.28,14.23-21.8,1.95-1.46,2.69-2.97,2.51-5.3-.33-4.22-.19-8.49-.74-12.68-1.57-11.98-8.68-18.24-20.84-18.9-6.85-.37-13.76-.46-20.5-1.58-10.23-1.7-16.34-8.21-18.14-18.38-5.03-28.47-9.91-56.97-14.84-85.46-4.63-26.77-9.21-53.55-13.94-80.3-.54-3.07-.19-5.41,1.91-7.85,3.66-4.25,6.88-8.88,10.48-13.19,1-1.19,2.7-1.79,4.08-2.67.85,1.4,2.14,2.7,2.49,4.22,9.35,40.42,18.56,80.87,27.9,121.29,2.88,12.49,9.61,23.18,16.48,33.76,8.23,12.67,18.82,23.29,29.83,33.47,5.54,5.13,8.15,10.96,7.88,18.51-.33,9.2-.08,18.41-.08,27.86Zm24.24,39.16c-.24-6.28-2.65-12.19-6.82-16.2-6.55-6.3-15.95-6.44-22.57-.21-5.48,5.15-7.43,11.69-6.71,19,.96,9.76,8,17.48,16.38,18.28,8.09.77,15.81-5,18.42-13.94.66-2.25.88-4.62,1.3-6.94Zm-72.17-104.83c-6.56-.04-11.98,5.24-12.07,11.78-.09,6.51,5.21,12.01,11.71,12.16,6.67.15,12.27-5.32,12.27-11.98,0-6.51-5.39-11.92-11.91-11.96Z"/>
  <path d="m69.63,210.24c-12.17,3.69-14.76,12.87-15.65,23.43-.58,6.87.49,12.09,6.92,16.36,7.47,4.96,11.2,12.41,11.38,21.94.19,9.68,5.62,17.07,13.51,22.59,5.86,4.1,5.76,6.82-.48,10.16-14.55,7.79-30.1,11.7-46.59,12.48-24.7,1.17-41.64-21.53-38.3-44.32,2.37-16.19,11.04-27.62,27.15-32.31,4.45-1.3,9.32-1.17,14.42-1.75,0-8.5.39-17.21-.11-25.87-.51-8.83,2.22-15.79,9.12-21.35,2.49-2.01,4.45-4.68,7.22-6.93,1.69,9.43,4.26,18.14,11.4,25.57Zm-15.59,69.2c-.14-6.93-1.83-12.27-5.97-16.66-6.9-7.32-17.25-7.34-24.15,0-4.73,5.03-6.43,11.15-5.83,17.9.89,9.88,8.07,17.79,16.57,18.5,8.09.67,15.78-5.19,18.32-14.1.61-2.13.83-4.38,1.05-5.63Z"/>
  <path d="m121.83,160.15c-8.06-10.87-14.86-21.53-19.07-33.64-.48-1.4-.13-3.18.14-4.73,6.18-34.7,12.4-69.4,18.63-104.09.86-4.78,1.67-9.58,2.76-14.31.29-1.25,1.31-2.81,2.39-3.24.77-.31,2.53.77,3.28,1.69,4.25,5.22,8.49,10.48,12.36,15.98.96,1.37.99,3.76.73,5.57-2.64,17.87-5.43,35.72-8.19,53.57-4.19,27.09-8.39,54.17-12.59,81.25-.06.36-.16.71-.45,1.94Z"/>
</svg>