<?xml version="1.0" encoding="UTF-8"?>
<svg id="Layer_1" data-name="Layer 1" width="24" height="24" xmlns="http://www.w3.org/2000/svg" viewBox="0 0 184.5 184.5">
  <rect width="184.5" height="184.5" transform="translate(184.5 184.5) rotate(180)" style="fill: none; opacity: 0;"/>
  <path d="m57.73,30.52h62.54c5.21,0,9.48,4.32,9.48,9.59v10.55c0,3.84-2.37,8.63-4.74,11.03l-20.37,18.23c-2.84,2.4-4.74,7.19-4.74,11.03v20.62c0,2.88-1.9,6.71-4.26,8.15l-6.63,4.32c-6.16,3.84-14.69-.48-14.69-8.15v-25.42c0-3.36-1.9-7.67-3.79-10.07l-18-19.19c-2.37-2.4-4.26-6.71-4.26-9.59v-11.03c0-5.76,4.26-10.07,9.48-10.07Z"/>
</svg>