<?xml version="1.0" encoding="UTF-8"?>
<svg id="Layer_1" data-name="Layer 1" width="24" height="24" xmlns="http://www.w3.org/2000/svg" viewBox="0 0 21.5 21.5">
  <path d="m10.25,20.5C4.6,20.5,0,15.9,0,10.25S4.6,0,10.25,0s10.25,4.6,10.25,10.25-4.6,10.25-10.25,10.25Zm0-19C5.42,1.5,1.5,5.43,1.5,10.25s3.92,8.75,8.75,8.75,8.75-3.93,8.75-8.75S15.08,1.5,10.25,1.5Z"/>
  <path d="m20.75,21.5c-.19,0-.38-.07-.53-.22l-2-2c-.29-.29-.29-.77,0-1.06s.77-.29,1.06,0l2,2c.29.29.29.77,0,1.06-.15.15-.34.22-.53.22Z"/>
</svg>