<?xml version="1.0" encoding="UTF-8"?>
<svg id="Layer_1" data-name="Layer 1" width="24" height="24" xmlns="http://www.w3.org/2000/svg" viewBox="0 0 163.49 142.61">
  <path d="m0,49.33c1.01-3,2.28-5.8,4.4-8.26,1.44-1.66,3.2-2.85,4.85-4.19.8-.65,1.15-1.07.66-2.02-2.48-4.78-.11-10.94,4.73-13.09,1.61-.71,2.29-2.46,3.43-3.7.45-.49-.35-1.7-.55-2.58-.66-2.84.3-5.22,1.79-7.46,1.9-2.85,4.81-3.8,8.04-3.83,5.12-.04,10.22-.65,15.34-.75,3.35-.07,6.71-.41,10.07-.61,3.89-.23,7.78-.44,11.67-.65,3.62-.2,7.25-.43,10.87-.63,5.57-.31,11.14-.67,16.7-1C96.38.31,100.74.02,105.12,0c3.25-.02,5.65,1.52,7.2,4.19,4.27,7.36,8.4,14.8,12.58,22.21,5.12,9.08,10.23,18.16,15.33,27.26,4.2,7.51,8.35,15.04,12.55,22.55,3.04,5.43,6.09,10.85,9.23,16.22,3.02,5.17,1.33,12.17-4.22,14.55-.87.37-1.35.89-1.19,1.91.08.51,0,1-.27,1.52-1.12,2.19-1.15,4.66-1.66,7.01-.83,3.87-3.82,6.32-7.56,7.16-3.13.7-6.29,1.28-9.43,1.95-4.9,1.04-9.78,2.12-14.68,3.18-4.66,1.01-9.31,2.02-13.97,3.02-5.77,1.24-11.55,2.47-17.32,3.7-5.21,1.12-10.41,2.23-15.61,3.36-4.13.9-8.23,1.94-12.39,2.7-3.7.67-7.67-1.51-9.31-4.93-1.07-2.23-2.02-4.51-2.93-6.8-.32-.81-.71-1.07-1.59-1.07-3.34,0-6.69.28-9.97-.9-6.79-2.44-11.53-6.83-12.95-14.02-.91-4.63.72-8.85,3.75-12.46.2-.23.55-.33.92-.55-1.5-1.26-3.04-.84-4.39-1.14-7.43-1.64-12.78-5.62-15.14-13.06-1.68-5.31.11-9.88,3.28-14.11,1.07-1.42,2.45-2.54,3.96-3.88-3.69-.53-7.04-1.2-10.08-2.93-4.65-2.65-7.78-6.44-9.02-11.72-.02-.06-.16-.1-.25-.15,0-1.81,0-3.63,0-5.44ZM21.73,7.67c-2.95,2.1-3.56,6.48-2.24,9.54,1.56,3.61,3.23,7.18,4.66,10.85.49,1.24,1.12,1.64,2.29,1.41.87-.17,1.74-.31,2.64-.37.56-.04,1.23-.28.67-1.21-.53-.89-.82-1.93-1.31-2.85-.28-.54-.35-.95.15-1.35.85-.16,1.06.5,1.32,1.07.48,1.04,1,2.07,1.37,3.15.19.57.45.79,1,.74,3.6-.3,7.14.27,10.66.85,1.47.24,3.25.22,4.25,1.22,3.83,3.89,4.46,10.48-.04,14.49-.74.66-1.25.62-1.84.05-2.28-2.2-5.11-3.18-8.15-3.8.39.34.22.81.4,1.2,2.5,5.51,4.96,11.03,7.21,16.65.21.51.52.82,1.21.98,2.28.52,4.62-.02,6.89.57,2.77.72,5.9.43,7.58,3.64,2.39,4.59,1.85,9.31-2.08,12.7-.56.48-.78.18-1.16-.15-1.76-1.51-3.67-2.74-6.11-3.35,2.16,4.95,4.29,9.7,6.28,14.51.38.93.77,1.18,1.69,1.17,3.63-.04,7.27-.18,10.86.62,2.25.5,4.46.83,5.77,3.26,1.87,3.49,2.04,7.71-.31,11-1.54,2.16-1.96,2.23-4.06.67-.33-.25-.69-.48-1.05-.68-2.15-1.17-4.36-2.17-6.96-2.41,1.33,3.09,2.53,6.04,3.89,8.92.59,1.25,1.34,2.41,2.55,3.31,2.5,1.85,5.04,1.58,7.84.94,7.48-1.73,15.01-3.25,22.53-4.86,7.46-1.6,14.92-3.2,22.39-4.8,6-1.29,11.99-2.59,18-3.84,1.53-.32,3.05-1.16,4.66-.3-.24,1.19-1.39,1.09-2.11,1.22-5.05.88-10.01,2.15-15.03,3.19-5.68,1.17-11.35,2.4-17.02,3.61-5.41,1.16-10.83,2.33-16.24,3.5-2.44.53-4.88,1.08-7.33,1.6-3.56.76-7.17,1.37-10.69,2.3-3.49.92-7.78-.4-9.74-3.41-1.91-2.93-2.93-6.28-4.39-9.42-1.12-2.41-1.48-2.7-4-2.2-.76.15-1.55.16-2.44.42,2.69,6.15,5.25,12.3,8.08,18.31,1.27,2.69,3.71,4.11,6.79,3.93,3.62-.21,7.07-1.4,10.61-2.06,5.02-.93,9.96-2.27,14.95-3.35,6.39-1.39,12.81-2.7,19.2-4.07,4.08-.87,8.15-1.8,12.23-2.67,4.93-1.04,9.88-2.02,14.81-3.07,4.02-.86,8-1.96,12.05-2.65,4.49-.76,7.51-4.53,7.05-8.74.28-1.56-.37-2.88-1.09-4.16-4.56-8.2-9.11-16.4-13.7-24.58-6.97-12.4-13.98-24.78-20.95-37.18-4.95-8.82-9.83-17.68-14.83-26.47-1.49-2.63-3.8-4.06-6.98-3.97-3.53.1-7.05.43-10.57.62-5.42.29-10.84.65-16.26.96-3.63.21-7.26.4-10.9.65-4.9.34-9.81.43-14.71.69-2,.11-4.01.17-5.99.35-4.77.43-9.56.65-14.34.89-2.06.1-4.1.35-6.16.41-1.38.04-2.91.43-3.79,1.82Zm44.74,125.55c1.68.19,3.33-.42,5-.76,5.66-1.16,11.29-2.49,16.94-3.71,6.36-1.38,12.73-2.71,19.09-4.08,4.55-.98,9.08-1.99,13.63-2.96,5.31-1.13,10.63-2.22,15.93-3.35,3.63-.78,7.23-1.75,10.89-2.38,4.58-.79,6.34-3.22,7.36-6.76.3-1.03-.21-1.5-1.24-1.27-1.51.35-3.04.65-4.55.99-8.93,1.99-17.89,3.89-26.85,5.76-10.23,2.13-20.41,4.46-30.62,6.69-6.41,1.4-12.83,2.79-19.26,4.12-3.92.81-7.81-.88-9.7-4.24-.83-1.47-1.39-3.09-2.06-4.65-1.93-4.46-3.86-8.93-5.8-13.38-.18-.41-.38-1.01-.99-.71-1.38.67-2.89.99-4.24,1.81-.76.46-.6.73-.37,1.26,3.31,7.69,6.57,15.39,9.94,23.04,1.04,2.37,3.47,4.87,6.91,4.6Zm-6.05-62.98c0-.7,0-1.07,0-1.44-.03-2.75-1.94-5.37-4.5-5.96-1.89-.43-3.82-.82-5.75-1-8.34-.8-16.25.76-23.62,4.77-5.14,2.8-9.86,6.13-12.47,11.68-.91,1.93-1.53,4.01-1.25,6.11.7,5.17,3.33,9.19,7.75,11.99,3.53,2.23,7.39,3.32,11.58,3.22,1.91-.05,3.11-1.41,4.25-2.56.76-.77-.51-1.86-.76-2.84-.2-.79-.73-1.12-1.55-1.01-1.13.16-2.23-.08-3.29-.36-6.28-1.63-8.52-6.94-4.93-11.88,4.31-5.92,10.47-8.84,17.64-9.51,5-.47,9.68.72,13.76,3.8.59.44.94.27,1.32-.21,1.2-1.5,2.08-3.1,1.81-4.8Zm93.26,44.78c-2.13,1.62-4.43,2.11-6.79,2.6-6.6,1.37-13.16,2.96-19.75,4.37-7.82,1.68-15.66,3.27-23.48,4.92-5.33,1.13-10.66,2.29-15.99,3.45-5.29,1.15-10.55,2.4-15.86,3.46-2.17.43-4.31,1.35-6.61.89-4.15-.84-6.2-3.77-7.72-7.44-2.9-6.99-5.98-13.9-8.97-20.85-.31-.73-.65-.93-1.42-.47-1.1.65-2,1.51-2.92,2.38-.55.52-.56.88-.25,1.56,2.03,4.57,3.97,9.18,5.96,13.77,1.89,4.36,3.76,8.72,5.73,13.04,1.27,2.79,4.98,5.01,7.34,4.51,4.43-.94,8.85-1.92,13.27-2.88,5.94-1.28,11.88-2.56,17.82-3.84,4.98-1.07,9.96-2.14,14.94-3.2,5.78-1.24,11.56-2.49,17.35-3.72,6.7-1.43,13.42-2.83,20.11-4.29,4.23-.92,6.91-3.56,7.23-8.26ZM34.39,30.05c-2.66-.05-5.3.18-7.89.74-8.73,1.89-16.42,5.68-22.13,12.77-2.29,2.84-3.67,6.27-3,9.93,1.83,10.06,11.48,14.94,19.73,14.39,2.14-.14,2.68-1.18,1.81-3.12-.3-.68-.61-1.36-.88-2.06-.29-.74-.67-1.1-1.58-1.25-3.32-.58-6.36-1.9-7.45-5.4-1.01-3.26.46-6.02,2.61-8.43,1.14-1.28,2.44-2.37,3.89-3.3,8.57-5.48,17.27-6.66,26.15-.75.77.51,1.12.15,1.57-.38,2.44-2.88,2.19-8.33-.5-11.03-.28-.28-.6-.37-.96-.48-3.7-1.18-7.5-1.61-11.36-1.64Zm26.75,60.55c-2.18-.17-4.51.12-6.79.52-6.35,1.11-12.17,3.57-17.39,7.41-3.44,2.53-6.36,5.47-7.92,9.56-1.11,2.93-1.29,5.92-.08,8.8,3.55,8.45,11.78,12.2,20.21,11.54.85-.07,1.12-.39.73-1.24-.54-1.16-1.03-2.34-1.46-3.54-.44-1.21-1.16-1.8-2.51-2-4-.59-6.65-4.03-6.27-8.05.2-2.14,1.39-3.88,2.79-5.45,2.38-2.68,5.36-4.54,8.62-5.91,7.3-3.07,14.43-2.96,21.14,1.63.99.67,1.45.41,2.05-.39,2.1-2.79,2.02-6.82-.16-10.14-.51-.77-1.14-1.22-2-1.41-3.55-.82-7.12-1.5-10.96-1.35ZM27.86,41.83c-1.25.48-2.48.98-3.74,1.44-.9.33-1.25.69-.76,1.77,2.24,4.93,4.39,9.91,6.52,14.89,1.28,2.99,1.23,3.02,4.28,2.07.88-.27,2.15-.32,2.54-.92.49-.76-.55-1.68-.91-2.53-2.22-5.28-4.48-10.54-6.74-15.8-.2-.46-.42-1.01-1.18-.92Zm13.57,31.15c-1.29.36-2.58.7-3.87,1.08-1.07.31-1.29.86-.79,1.96,2.07,4.56,4.1,9.15,6.03,13.78,1.27,3.06,1.21,3.13,4.19,1.76.83-.38,2.08-.18,2.46-.98.44-.94-.55-1.83-.92-2.72-1.94-4.63-3.98-9.21-6-13.8-.21-.47-.25-1.19-1.1-1.08Zm-11.72-9.98c-.08-.14-.17-.27-.24-.41-2.15-4.98-4.24-9.97-6.45-14.92-1.57-3.5-2.09-3.53-4.88-.63-.07.08-.13.18-.22.23-.69.47-.71.99-.37,1.76,2.05,4.62,4.04,9.26,6.06,13.9.39.9.57,2.2,1.26,2.58.82.45,1.72-.65,2.59-1.09.55-.28,1.16-.44,1.72-.71.28-.13.56-.32.53-.72Zm.31-21.5c2.62,6.05,5.28,12.04,7.79,18.09.55,1.34,1.41,1.49,2.45,1.21.74-.19,1.44-.28,2.17-.25,1.15.06,1.35-.27.87-1.38-2.3-5.23-4.51-10.51-6.78-15.76-1.11-2.57-1.51-2.77-4.26-2.37-.71.1-1.41.29-2.23.46Zm4.71,33.8c-1.22.85-2.64,1.41-3.79,2.42-.55.49-.62.85-.28,1.61,2.18,4.84,4.27,9.73,6.37,14.6.87,2.03.86,2.03,2.82.89.54-.31,1.1-.59,1.67-.82,1-.4,1.18-.93.72-1.97-2.32-5.29-4.56-10.62-6.86-15.93-.13-.29-.17-.76-.67-.81Zm8.86-2.55c2.45,5.7,4.88,11.38,7.33,17.05.13.3.37.56.75.43,1.23-.42,2.54-.31,3.79-.75.85-.3.76-.53.5-1.14-1.61-3.71-3.13-7.45-4.8-11.12-2.14-4.7-2.19-4.68-7.57-4.46Zm-9.16,18.79c-.32-.78-.59-1.44-.87-2.1-1.28-2.97-2.57-5.95-3.86-8.92-.37-.86-.83-1.07-1.6-.3-.68.69-1.14,1.5-1.58,2.32-1.44,2.66-1.41,5.58,1.7,7.72,1.9,1.31,3.93,1.47,6.22,1.28ZM15.66,25.73c.16,2.06,1.03,3.77,1.71,5.54.2.53.82.59,1.38.37,1.34-.51,2.67-1.09,4.04-1.49.68-.2.53-.31.31-.81-1.3-2.97-2.55-5.96-3.81-8.94-.43-1.02-.95-.53-1.39-.05-1.41,1.56-1.94,3.49-2.25,5.38Zm-1.06-2.05c-.34.04-.54,0-.65.08-2.51,1.88-4.68,5.66-3.13,9.52.77,1.9.68,1.93,2.34,1.01.64-.35,1.27-.73,1.94-.99,1.25-.48,1.31-1.13.73-2.29-1.13-2.25-1.93-4.62-1.24-7.33Zm1.44,25.45c-1.83,2.51-2.91,4.98-1.25,7.65,1.28,2.06,3.35,3.06,5.92,3.11-1.57-3.62-3.08-7.09-4.67-10.76Zm26.54,61.22c-1.83,2.18-2.17,4.61-1.04,6.73,1,1.88,3.2,3.13,5.19,2.89-1.37-3.17-2.73-6.31-4.15-9.62Z" style="fill: #020404;"/>
  <path d="m145.18,101.21c-1.61-.86-3.14-.02-4.66.3-6.01,1.25-12,2.55-18,3.84-7.46,1.6-14.92,3.2-22.39,4.8-7.51,1.61-15.04,3.14-22.53,4.86-2.8.65-5.35.91-7.84-.94-1.22-.9-1.96-2.06-2.55-3.31-1.35-2.88-2.55-5.83-3.89-8.92,2.6.24,4.81,1.24,6.96,2.41.37.2.72.43,1.05.68,2.1,1.56,2.52,1.49,4.06-.67,2.35-3.28,2.18-7.51.31-11-1.31-2.44-3.52-2.77-5.77-3.26-3.59-.79-7.23-.66-10.86-.62-.92.01-1.3-.24-1.69-1.17-1.99-4.81-4.12-9.56-6.28-14.51,2.44.61,4.35,1.84,6.11,3.35.38.33.6.63,1.16.15,3.93-3.39,4.47-8.11,2.08-12.7-1.67-3.21-4.81-2.92-7.58-3.64-2.27-.59-4.61-.05-6.89-.57-.69-.16-1-.47-1.21-.98-2.25-5.62-4.71-11.14-7.21-16.65-.18-.39-.01-.86-.4-1.2,3.04.62,5.87,1.6,8.15,3.8.59.57,1.1.61,1.84-.05,4.5-4.01,3.87-10.59.04-14.49-.99-1.01-2.78-.98-4.25-1.22-3.53-.58-7.06-1.15-10.66-.85-.55.05-.81-.17-1-.74-.37-1.08-.89-2.11-1.37-3.15-.26-.57-.47-1.23-1.32-1.07-2.06-5.43-4.49-10.71-6.87-16.01.88-1.39,2.41-1.78,3.79-1.82,2.06-.06,4.11-.31,6.16-.41,4.78-.24,9.57-.46,14.34-.89,1.98-.18,3.99-.24,5.99-.35,4.9-.26,9.82-.36,14.71-.69,3.63-.25,7.26-.44,10.9-.65,5.42-.31,10.84-.67,16.26-.96,3.52-.19,7.04-.52,10.57-.62,3.17-.09,5.48,1.35,6.98,3.97,5,8.79,9.87,17.65,14.83,26.47,6.97,12.4,13.98,24.78,20.95,37.18,4.59,8.18,9.15,16.38,13.7,24.58.71,1.29,1.37,2.61,1.09,4.16-5.6,1.19-11.21,2.38-16.81,3.57ZM59.98,14.17c-1.39-.31-2.67.22-3.98.24-3.77.07-5.77,3.39-4.01,6.79,4.02,7.79,8.08,15.57,12.13,23.35.77,1.49,1.99,2.17,3.67,2.23,1.43.05,2.83-.31,4.24-.32,2.53-.02,5.02-.5,7.52-.75,3.79-.37,7.59-.79,11.38-1.19,2.4-.25,4.81-.47,7.21-.73,3.7-.4,7.39-.94,11.1-1.17,4.98-.3,7.46-3.64,4.8-8.29-3.8-6.65-7.45-13.39-11.19-20.08-.91-1.62-2.32-2.46-4.22-2.41-1.48.04-2.96.24-4.42.26-4.76.06-9.48.69-14.24.76-1.94.03-3.89.19-5.84.3-4.73.28-9.46.65-14.14.99Z" style="fill: #92b8ff;"/>
  <g>
    <path d="m60.43,70.24c.27,1.7-.61,3.3-1.81,4.8-.38.48-.74.65-1.32.21-4.08-3.08-8.76-4.27-13.76-3.8-7.17.67-13.33,3.59-17.64,9.51-3.59,4.94-1.35,10.25,4.93,11.88,1.06.28,2.17.52,3.29.36.82-.12,1.35.22,1.55,1.01.25.98,1.52,2.07.76,2.84-1.13,1.15-2.34,2.51-4.25,2.56-4.19.1-8.05-.99-11.58-3.22-4.42-2.79-7.05-6.82-7.75-11.99-.28-2.1.34-4.18,1.25-6.11,2.61-5.55,7.33-8.88,12.47-11.68,7.37-4.01,15.28-5.57,23.62-4.77,1.93.18,3.85.57,5.75,1,2.56.59,4.47,3.21,4.5,5.96,0,.37,0,.75,0,1.44Z" style="fill: #f9d4f4;"/>
    <path d="m34.39,30.05c3.86.03,7.66.45,11.36,1.64.36.12.67.2.96.48,2.69,2.69,2.94,8.15.5,11.03-.45.53-.8.89-1.57.38-8.88-5.91-17.58-4.73-26.15.75-1.45.93-2.74,2.02-3.89,3.3-2.15,2.41-3.63,5.17-2.61,8.43,1.09,3.5,4.13,4.82,7.45,5.4.9.16,1.29.52,1.58,1.25.27.69.58,1.37.88,2.06.86,1.94.32,2.98-1.81,3.12-8.25.54-17.89-4.34-19.73-14.39-.67-3.66.71-7.08,3-9.93,5.71-7.09,13.4-10.88,22.13-12.77,2.59-.56,5.23-.79,7.89-.74Z" style="fill: #f9d4f4;"/>
    <path d="m61.15,90.59c3.84-.15,7.4.53,10.96,1.35.85.2,1.49.64,2,1.41,2.18,3.32,2.25,7.36.16,10.14-.6.8-1.06,1.06-2.05.39-6.72-4.59-13.84-4.7-21.14-1.63-3.26,1.37-6.23,3.23-8.62,5.91-1.4,1.57-2.58,3.31-2.79,5.45-.38,4.01,2.28,7.45,6.27,8.05,1.35.2,2.07.78,2.51,2,.43,1.2.93,2.38,1.46,3.54.39.84.12,1.17-.73,1.24-8.43.66-16.67-3.1-20.21-11.54-1.21-2.88-1.04-5.87.08-8.8,1.56-4.09,4.48-7.03,7.92-9.56,5.22-3.83,11.04-6.29,17.39-7.41,2.28-.4,4.61-.69,6.79-.52Z" style="fill: #f9d4f4;"/>
  </g>
  <g>
    <path d="m145.18,101.21c5.6-1.19,11.21-2.38,16.81-3.57.46,4.21-2.56,7.98-7.05,8.74-4.05.68-8.02,1.79-12.05,2.65-4.93,1.05-9.88,2.03-14.81,3.07-4.08.86-8.15,1.8-12.23,2.67-6.4,1.37-12.81,2.67-19.2,4.07-4.99,1.09-9.93,2.43-14.95,3.35-3.55.66-7,1.85-10.61,2.06-3.08.18-5.52-1.24-6.79-3.93-2.83-6.02-5.39-12.16-8.08-18.31.89-.26,1.68-.27,2.44-.42,2.52-.5,2.87-.21,4,2.2,1.46,3.14,2.48,6.5,4.39,9.42,1.96,3.01,6.25,4.34,9.74,3.41,3.52-.93,7.12-1.54,10.69-2.3,2.45-.52,4.89-1.07,7.33-1.6,5.41-1.17,10.82-2.34,16.24-3.5,5.67-1.21,11.34-2.44,17.02-3.61,5.01-1.04,9.98-2.31,15.03-3.19.72-.12,1.87-.02,2.11-1.22Z" style="fill: #679df4;"/>
    <path d="m21.73,7.67c2.37,5.3,4.8,10.57,6.87,16.01-.49.4-.43.81-.15,1.35.48.93.77,1.96,1.31,2.85.56.94-.11,1.18-.67,1.21-.89.06-1.76.19-2.64.37-1.17.23-1.81-.17-2.29-1.41-1.44-3.66-3.1-7.23-4.66-10.85-1.32-3.05-.71-7.44,2.24-9.54Z" style="fill: #679df4;"/>
    <path d="m30.01,41.5c.82-.17,1.52-.35,2.23-.46,2.75-.4,3.15-.2,4.26,2.37,2.27,5.25,4.48,10.52,6.78,15.76.48,1.1.29,1.43-.87,1.38-.73-.04-1.44.05-2.17.25-1.04.28-1.89.13-2.45-1.21-2.5-6.05-5.16-12.03-7.79-18.09Z" style="fill: #679df4;"/>
    <path d="m43.58,72.75c5.38-.21,5.43-.24,7.57,4.46,1.67,3.67,3.2,7.42,4.8,11.12.26.61.35.84-.5,1.14-1.25.44-2.57.33-3.79.75-.38.13-.62-.13-.75-.43-2.44-5.67-4.88-11.35-7.33-17.05Z" style="fill: #679df4;"/>
  </g>
  <g>
    <path d="m153.69,115.02c-.33,4.7-3.01,7.34-7.23,8.26-6.7,1.46-13.41,2.86-20.11,4.29-5.78,1.23-11.56,2.48-17.35,3.72-4.98,1.07-9.96,2.13-14.94,3.2-5.94,1.28-11.88,2.55-17.82,3.84-4.42.96-8.84,1.94-13.27,2.88-2.36.5-6.08-1.72-7.34-4.51-1.97-4.32-3.84-8.69-5.73-13.04-1.99-4.59-3.93-9.2-5.96-13.77-.3-.69-.29-1.04.25-1.56.91-.87,1.81-1.72,2.92-2.38.77-.46,1.11-.25,1.42.47,2.99,6.95,6.07,13.86,8.97,20.85,1.52,3.67,3.56,6.6,7.72,7.44,2.3.46,4.44-.45,6.61-.89,5.3-1.06,10.57-2.31,15.86-3.46,5.33-1.16,10.65-2.32,15.99-3.45,7.82-1.65,15.66-3.24,23.48-4.92,6.59-1.42,13.15-3,19.75-4.37,2.36-.49,4.66-.99,6.79-2.6Z" style="fill: #92b8ff;"/>
    <path d="m29.7,63c.03.39-.25.59-.53.71-.56.26-1.17.42-1.72.71-.86.44-1.77,1.54-2.59,1.09-.68-.38-.86-1.68-1.26-2.58-2.01-4.63-4-9.28-6.06-13.9-.34-.77-.32-1.29.37-1.76.09-.06.14-.16.22-.23,2.79-2.9,3.31-2.88,4.88.63,2.21,4.95,4.31,9.95,6.45,14.92.06.14.16.27.24.41Z" style="fill: #92b8ff;"/>
    <path d="m34.72,75.3c.5.05.54.52.67.81,2.3,5.3,4.53,10.64,6.86,15.93.45,1.03.28,1.57-.72,1.97-.58.23-1.14.51-1.67.82-1.97,1.13-1.95,1.14-2.82-.89-2.1-4.88-4.18-9.76-6.37-14.6-.34-.76-.27-1.12.28-1.61,1.14-1.01,2.56-1.57,3.79-2.42Z" style="fill: #92b8ff;"/>
    <path d="m14.6,23.68c-.69,2.71.11,5.08,1.24,7.33.58,1.16.51,1.81-.73,2.29-.67.26-1.31.64-1.94.99-1.66.92-1.57.89-2.34-1.01-1.55-3.85.62-7.63,3.13-9.52.11-.08.31-.04.65-.08Z" style="fill: #92b8ff;"/>
  </g>
  <path d="m59.98,14.17c4.68-.33,9.41-.71,14.14-.99,1.95-.11,3.9-.28,5.84-.3,4.76-.07,9.48-.7,14.24-.76,1.45-.02,2.94-.22,4.42-.26,1.91-.05,3.32.79,4.22,2.41,3.74,6.69,7.39,13.43,11.19,20.08,2.66,4.65.18,7.98-4.8,8.29-3.71.23-7.4.77-11.1,1.17-2.4.26-4.81.48-7.21.73-3.79.4-7.59.82-11.38,1.19-2.5.24-4.99.73-7.52.75-1.41.01-2.8.37-4.24.32-1.68-.06-2.89-.74-3.67-2.23-4.04-7.78-8.11-15.55-12.13-23.35-1.76-3.41.25-6.72,4.01-6.79,1.31-.02,2.59-.55,3.98-.24Zm.78,1.22c-1.34-.24-2.88.29-4.46.31-3.13.03-4.45,2.13-3,4.93,3.99,7.75,8.02,15.48,12.02,23.22.66,1.28,1.8,1.8,3.11,1.59,1.31-.2,2.64-.09,3.91-.32,4.47-.82,9.02-.9,13.52-1.52,3.57-.5,7.19-.63,10.78-1.01,4.51-.48,9-1.12,13.51-1.56,3.16-.31,4.47-2.62,2.93-5.38-3.74-6.7-7.46-13.41-11.19-20.13-1.05-1.89-2.42-2.57-4.51-2.39-4.18.36-8.36.76-12.55.94-3.47.15-6.93.38-10.39.64-4.47.33-8.95.45-13.68.68Z" style="fill: #020303;"/>
</svg>