<svg width="24" height="24" fill="none" stroke="currentColor" stroke-linecap="round" stroke-linejoin="round" stroke-width="1.5" viewBox="0 0 24 24" xmlns="http://www.w3.org/2000/svg">
  <path d="M8.571 10.857a2.286 2.286 0 1 0 0-4.571 2.286 2.286 0 0 0 0 4.571Z"></path>
  <path d="M15.429 10.857a2.286 2.286 0 1 0 0-4.571 2.286 2.286 0 0 0 0 4.571Z"></path>
  <path d="M8.571 17.714a2.286 2.286 0 1 0 0-4.571 2.286 2.286 0 0 0 0 4.571Z"></path>
  <path d="M15.429 17.714a2.286 2.286 0 1 0 0-4.571 2.286 2.286 0 0 0 0 4.571Z"></path>
</svg>