<?xml version="1.0" encoding="UTF-8"?>
<svg id="Layer_1" data-name="Layer 1" width="24" height="24" xmlns="http://www.w3.org/2000/svg" viewBox="0 0 383.84 376.17">
  <path d="m0,89.34v-10.5c2.15-4.29,5.06-7.76,8.87-10.88,18.22-14.91,37.92-27.52,58.64-38.57,21.98-11.72,44.99-20.93,69.05-27.45,5.35-1.45,10.78-2.71,16.44-1.42,12.85,2.94,25.35,7.02,37.64,11.7,18.06,6.87,35.39,15.32,52.08,25.02,16.46,9.58,31.98,20.56,46.84,32.47,3.84,3.08,6.34,7.03,6.52,11.93.3,8.72.3,17.46.22,26.19-.04,4.31-1.53,8.12-4.77,11.23-8.38,8.05-18.06,14.4-27.4,21.2-2.67,1.95-6.15,2.86-7.87,6.04-.89-.03-1.67.18-2.45.68-14.37,9.24-29.41,17.21-44.97,24.25-18.28,8.27-37.05,15.04-56.58,19.7-3.24.77-3.94-.27-3.86-3.24.15-5.86.04-11.72.04-17.59,0-1.68.01-3.18-2.28-3.57-15.88-2.73-30.81-8.54-45.79-14.23-6.26-2.38-12.07-5.86-18.61-7.53-.32-1.23.6-1.81,1.34-2.45,9.35-7.99,18.73-15.95,28.07-23.96,8.96-7.68,17.88-15.4,26.81-23.1.74.04,1.55-.1,2.22.14,7.09,2.63,13.93,1.23,20.4-1.78,4.17-1.94,8.02-4.78,8.12-10.16.09-5.2-3.3-8.36-7.47-10.18-8.99-3.93-18.25-4.27-27.15.35-6.09,3.16-7.89,8.17-5.73,14.17-1.6,2.4-3.92,4.08-6.07,5.91-17.25,14.79-34.52,29.57-51.79,44.35-.82-.28-1.69-.47-2.45-.86-16.21-8.31-31.68-17.84-46.2-28.81-7.53-5.69-16.16-10.32-21.15-18.92-.08-.14-.47-.11-.71-.16Z" style="fill: #365e7d;"/>
  <path d="m364.34,188.3c5.91,6.25,9.5,13.9,12.79,21.67,2.37,5.6,4.36,11.36,5.23,17.43.13.9.64,1.28,1.47,1.38v20.99c-1.38.06-1.29,1.15-1.61,2.09-1.53,4.41-4.19,7.68-8.75,9.49-29.18,11.62-58.31,23.35-87.44,35.08-1.22.49-2.39.6-3.64.47,4.07-6.02,4.93-12.92,4.6-19.82-.47-9.88-3.19-19.34-6.75-28.57-2.83-7.33-7.06-13.85-11.24-20.43,24.71-10.03,49.46-19.96,74.1-30.15,7.18-2.97,14.94-4.72,21.24-9.65Z" style="fill: #f9f6f6;"/>
  <path d="m0,89.34c.24.05.63.02.71.16,4.99,8.6,13.62,13.23,21.15,18.92,14.52,10.97,29.99,20.5,46.2,28.81.76.39,1.63.58,2.45.86-.54,2.31-.66,4.66-.65,7.03.03,14.44,0,28.89.03,43.33,0,1.48-.27,2.99.37,4.43-8.4,7.1-8.85,12.48-1.77,20.68.56.65,1.48,1.1.39,2.36-2.87,3.3-4.53,7.33-6.2,11.32-6.16-4.62-12.38-9.17-18.46-13.9-3.66-2.85-4.23-7.06-4.25-11.36-.06-17.57-.13-35.15-.08-52.72,0-2.59-.69-4.13-3.05-5.63-11.03-7.04-21.34-15.11-31.62-23.19C2.57,118.38,2.21,114.89,0,112.58,0,104.84,0,97.09,0,89.34Z" style="fill: #2b4d66;"/>
  <path d="m256.18,165.79c.04,12.48.16,24.97.05,37.45-.02,2.27-.94,4.54-1.44,6.81-2.16,1.79-5.26,1.75-7.31,3.75-1.21,1.35-3,.76-4.5,1.37-18.05,7.39-36.17,14.62-54.24,21.96-1.01.41-2.66.24-2.75,2.02-1.85.04-3.69.24-5.41.95-10.9,4.46-21.75,9.06-32.72,13.37-6.03,2.37-11.87,5.29-18.2,6.89-13.17-4.15-25.75-9.73-38.11-15.85-.14-10.33-2.82-19.85-9.07-28.22-1-1.34-.69-2.24.66-3.34,3.72-3.03,4.95-6.87,3.98-11.74-.76-3.79-3.38-5.87-5.79-8.28.15-1.3.3-2.59.45-3.89.84.19,1.74.25,2.51.6,17.67,8.15,35.79,15.09,54.7,19.75,3.74.92,7.35,2.54,11.6,1.64,22.18-4.73,43.13-12.89,63.65-22.29,14.51-6.65,28.18-14.87,41.93-22.94Z" style="fill: #365e7d;"/>
  <path d="m202.16,330.76c-8.21,2.12-15.79,5.92-23.64,8.99-12.26,4.8-24.41,9.89-36.63,14.81-1.25.5-2.64.63-3.96.94,2.06-2.39,3.68-5.06,4.33-8.16,1.63-7.78,1.36-15.6-.26-23.31-2.68-12.77-7.61-24.66-15.16-35.35-1.61-2.28-1.35-3.05,1.3-4.1,19.99-7.95,39.87-16.17,59.87-24.09,6.68-2.65,13.19-5.79,20.16-7.68.66.74,1.41,1.42,1.95,2.24,10.56,15.9,16.96,33.15,16.18,52.47-.2,5.08-1.35,10.25-5.24,14.18,0,0,.04,0,.04,0-.33.24-.65.49-.98.73-1.83.62-3.44,1.73-5.15,2.56-4.23,2.04-9.09,2.71-12.83,5.79Z" style="fill: #f9f6f6;"/>
  <path d="m208.18,252.79c-6.97,1.89-13.48,5.04-20.16,7.68-20,7.92-39.88,16.15-59.87,24.09-2.65,1.06-2.92,1.82-1.3,4.1,7.55,10.69,12.48,22.58,15.16,35.35,1.61,7.71,1.89,15.54.26,23.31-.65,3.09-2.27,5.77-4.33,8.16-4.69,3.18-10.43,3.11-15.39,0-10.71-6.73-17-17-22.15-28.03-5.59-11.97-8.95-24.5-8.2-37.9.54-9.65,3.22-15.34,12.76-18.81,8.38-3.05,16.82-6.09,24.71-10.38,6.33-1.6,12.17-4.52,18.2-6.89,10.96-4.31,21.81-8.91,32.72-13.37,1.72-.7,3.56-.91,5.41-.95,2.91-1.2,5.48.03,8.06,1.15,5.87,2.55,9.79,7.43,14.13,11.82.04.22.04.44,0,.66Z" style="fill: #e7ecf6;"/>
  <path d="m208.18,252.79c.04-.22.04-.44,0-.66,20.08-8.04,40.17-16.07,60.25-24.11.19.04.38.07.57.09,4.18,6.57,8.41,13.1,11.24,20.43,3.56,9.23,6.28,18.69,6.75,28.57.33,6.9-.53,13.81-4.6,19.82-5.36,4.06-12.11,5.14-17.87,8.35-9.47,3.75-18.89,7.62-28.43,11.2-4.96,1.86-9.55,4.83-15.02,5.22,3.9-3.93,5.04-9.1,5.24-14.18.77-19.32-5.62-36.58-16.18-52.47-.54-.82-1.3-1.5-1.95-2.24Z" style="fill: #dd636e;"/>
  <path d="m268.42,314.96c4.91,10.94,9.24,22.1,13.58,33.27.31.79,1.13,1.67.42,2.38-.86.85-2.13.47-3.2.19-6.88-1.79-13.74-3.63-20.61-5.43-4.5-1.17-9.13-1.96-13.46-3.58-2.4-.9-3.07.13-3.98,1.64-6.06,10.04-12.1,20.09-18.17,30.13-.57.94-.96,2.06-2.51,2.59-4.65-11.81-9.31-23.64-13.97-35.47,14.05-6.39,28.62-11.49,42.81-17.5,6.38-2.7,13.19-4.43,19.09-8.24Z" style="fill: #dd636e;"/>
  <path d="m81.34,192.93c2.42,2.41,5.04,4.49,5.79,8.28.97,4.87-.27,8.71-3.98,11.74-1.35,1.1-1.67,2-.66,3.34,6.25,8.37,8.92,17.89,9.07,28.22-2.38,8.89-8.42,13.02-17.36,13.39-3.37-5.66-3.9-11.84-3.82-18.28.05-4.37.14-8.77,1.02-12.97.94-4.49-.61-11.11,7.25-11.42.09,0,.17-.39.28-.68-1.48-1.24-3.14-2.27-4.15-4.1-3.78-6.84-2.49-11.89,4.7-17.67.62.04,1.25.09,1.87.13Z" style="fill: #f6e266;"/>
  <path d="m268.42,314.96c-5.9,3.81-12.71,5.54-19.09,8.24-14.2,6.01-28.77,11.12-42.81,17.5-2.09-3.03-2.88-6.64-4.35-9.94,3.74-3.08,8.6-3.75,12.83-5.79,1.72-.83,3.32-1.94,5.15-2.56.33-.24.65-.49.98-.73,0,0-.04,0-.04,0,5.47-.38,10.06-3.36,15.02-5.22,9.53-3.58,18.96-7.45,28.43-11.2,1.68,3.07,3.24,6.2,3.89,9.69Z" style="fill: #cb5769;"/>
  <path d="m79.47,192.8c-7.18,5.78-8.48,10.83-4.7,17.67,1.01,1.83,2.67,2.86,4.15,4.1-.12.29-.19.67-.28.68-7.85.31-6.3,6.93-7.25,11.42-.88,4.19-.97,8.6-1.02,12.97-.08,6.44.45,12.62,3.82,18.28-5.12-1.23-9.49-3.49-12.34-8.23-2.74-4.55-2.78-9.29-1.52-14.19.71-2.76,1.55-5.49,2.34-8.24,1.67-4,3.34-8.02,6.2-11.32,1.1-1.26.18-1.71-.39-2.36-7.08-8.21-6.63-13.59,1.77-20.68,3.06-.75,6.13-1.64,9.21-.09Z" style="fill: #fec251;"/>
  <path d="m256.18,165.79c-13.74,8.07-27.42,16.29-41.93,22.94-20.52,9.41-41.47,17.56-63.65,22.29-4.25.91-7.86-.71-11.6-1.64-18.91-4.66-37.03-11.61-54.7-19.75-.77-.35-1.67-.41-2.51-.6,0-14.74-.02-29.49-.02-44.23,6.54,1.67,12.35,5.15,18.61,7.53,14.97,5.69,29.9,11.5,45.79,14.23,2.29.39,2.28,1.89,2.28,3.57,0,5.86.1,11.73-.04,17.59-.07,2.97.62,4.01,3.86,3.24,19.53-4.67,38.3-11.44,56.58-19.7,15.56-7.04,30.6-15.01,44.97-24.25.79-.51,1.56-.71,2.45-.68-.03,6.49-.05,12.98-.08,19.46Z" style="fill: #2b4d66;"/>
  <path d="m81.77,144.81c0,14.74.02,29.49.02,44.23-.15,1.3-.3,2.59-.45,3.89-.62-.04-1.25-.09-1.87-.13-3.09-1.55-6.15-.66-9.21.09-.64-1.43-.37-2.95-.37-4.43-.02-14.44,0-28.89-.03-43.33,0-2.38.11-4.72.65-7.03,17.27-14.78,34.53-29.55,51.79-44.35,2.15-1.84,4.47-3.51,6.07-5.91,2.83,2.97,6.12,5.34,9.62,7.46-8.94,7.7-17.86,15.42-26.81,23.1-9.34,8.01-18.72,15.97-28.07,23.96-.74.63-1.66,1.21-1.34,2.45Z" style="fill: #e6a461;"/>
  <path d="m137.98,95.3c-3.49-2.12-6.79-4.49-9.62-7.46-2.16-6-.36-11.01,5.73-14.17,8.9-4.62,18.16-4.28,27.15-.35,4.16,1.82,7.56,4.98,7.47,10.18-.1,5.38-3.95,8.23-8.12,10.16-6.47,3.01-13.31,4.41-20.4,1.78-.66-.25-1.47-.1-2.22-.14Z" style="fill: #f6e266;"/>
  <path d="m269,228.1c-.19-.02-.38-.05-.57-.09-5.22-7.33-11.57-13-20.95-14.21,2.05-2,5.15-1.97,7.31-3.75,6.42-1.25,12.11-4.45,18.1-6.83,22.21-8.8,44.33-17.84,66.5-26.74,5.75-2.31,11.12-.9,15.87,2.57,3.49,2.54,7.08,5.16,9.07,9.24-6.3,4.92-14.06,6.68-21.24,9.65-24.64,10.19-49.39,20.12-74.1,30.15Z" style="fill: #e7ecf6;"/>
  <path d="m247.48,213.81c9.38,1.2,15.73,6.87,20.95,14.21-20.08,8.04-40.17,16.07-60.25,24.11-4.34-4.38-8.26-9.26-14.13-11.82-2.58-1.12-5.15-2.35-8.06-1.15.09-1.78,1.74-1.61,2.75-2.02,18.07-7.34,36.19-14.57,54.24-21.96,1.5-.61,3.29-.02,4.5-1.37Z" style="fill: #cb5769;"/>
  <path d="m221.12,321.67c-.33.24-.65.49-.98.73.32-.24.65-.49.98-.73Z" style="fill: #dd636e;"/>
</svg>