<?xml version="1.0" encoding="UTF-8"?>
<svg id="Layer_1" data-name="Layer 1" width="24" height="24" xmlns="http://www.w3.org/2000/svg" viewBox="0 0 349 377">
  <path d="m265,168H84C37.68,168,0,130.32,0,84S37.68,0,84,0h181c46.32,0,84,37.68,84,84s-37.68,84-84,84ZM84,28c-30.88,0-56,25.12-56,56s25.12,56,56,56h181c30.88,0,56-25.12,56-56s-25.12-56-56-56H84Z"/>
  <path d="m265,377H84c-46.32,0-84-37.68-84-84s37.68-84,84-84h181c46.32,0,84,37.68,84,84s-37.68,84-84,84ZM84,237c-30.88,0-56,25.12-56,56s25.12,56,56,56h181c30.88,0,56-25.12,56-56s-25.12-56-56-56H84Z"/>
</svg>