<?xml version="1.0" encoding="UTF-8"?>
<svg id="Layer_1" data-name="Layer 1" width="24" height="24" xmlns="http://www.w3.org/2000/svg" viewBox="0 0 370.51 255.75">
  <path d="m23.41,17.28c4.56-1.69,9.41-1.44,14.12-2.13,9.52-1.39,19.08-2.46,28.63-3.6,7.37-.87,14.75-1.6,22.12-2.45,9.08-1.04,18.15-2.13,27.23-3.23,7.46-.9,14.92-1.86,22.38-2.77,7.83-.96,15.65-1.92,23.48-2.82,6.85-.78,13.65.24,20.45.81,5.39.45,10.74,1.36,16.12,2.03,7.7.96,15.4,1.94,23.11,2.83,7.23.84,14.47,1.52,21.7,2.36,7.71.89,15.41,1.91,23.11,2.83,7.1.85,14.21,1.61,21.31,2.46,7.71.92,15.4,1.94,23.11,2.83,7.22.84,14.45,1.51,21.67,2.35,7.45.87,14.89,1.87,22.34,2.78,3.18.39,6.37.68,9.56,1,1.07.11,2.28-.35,3.11.74-4.97,1.51-10.17,1.57-15.26,2.23-9.34,1.21-18.7,2.22-28.05,3.33-9.46,1.13-18.92,2.31-28.39,3.43-9.22,1.09-18.46,2.12-27.68,3.23-9.58,1.14-19.16,2.25-28.72,3.55-6.6.89-13.33,1.03-19.78,2.91-4.77-2.1-9.91-1.75-14.91-2.33-9.95-1.16-19.9-2.38-29.85-3.6-7.49-.92-14.97-1.9-22.46-2.81-7.01-.84-14.02-1.63-21.04-2.42-9.6-1.07-19.21-2.04-28.8-3.2-8.73-1.05-17.4-2.54-26.21-2.84-9-2.68-18.3-3.05-27.58-3.69-5.25-.54-10.61-.65-15.73-1.79-3.02-.67-6.62.91-9.1-2.04Z" style="fill: #7171f2;"/>
  <path d="m361.55,36.79c-2.17,10.33-2.32,20.56,1.38,30.65,1.21,3.32,2.77,6.41,5.56,8.62,1.5,1.2,1.35,1.86-.18,2.64-.6-.85-1.52-.82-2.37-.72-4.92.58-9.83,1.2-14.74,1.8-9.21,1.14-18.42,2.31-27.64,3.4-9.35,1.1-18.71,2.07-28.06,3.17-9.83,1.15-19.66,2.38-29.48,3.58-7.49.91-14.97,1.96-22.48,2.71-7.64.77-15.18,2.43-22.89,2.52-.28-.55-.74-.75-1.34-.69-4.3-2.9-5.65-7.65-7.57-12.05-.39-3.24-1.74-6.34-1.45-9.69,1.59-5.3,2.27-10.91,5.71-15.58,1.74-2.37,3.64-3.86,6.74-3.96,3.08-.1,6.15-.71,9.22-1.09,9.23-1.12,18.46-2.22,27.69-3.34,9.6-1.16,19.19-2.34,28.79-3.48,9.36-1.11,18.72-2.16,28.07-3.26,7.26-.85,14.52-1.75,21.78-2.6,7.76-.9,15.52-1.77,23.27-2.65Z" style="fill: #eaeaea;"/>
  <path d="m361.55,90.67c-2.24,10.48-2.29,20.86,1.51,31.04,1.14,3.04,2.39,6.09,5.15,8.03,2.44,1.71.71,2.16-.66,2.84-.6-.85-1.52-.82-2.38-.72-4.92.58-9.84,1.2-14.75,1.82-8.97,1.13-17.94,2.29-26.91,3.39-7.99.98-15.99,1.89-23.98,2.84-10.95,1.3-21.9,2.59-32.85,3.91-9.47,1.14-18.91,2.63-28.41,3.37-6.36.5-12.65,2.92-19.15,1.12-2.5-1.94-4.15-4.5-5.5-7.32-1.4-2.91-1.85-6.07-2.82-9.1-.55-1.97-.84-3.96-.57-6,1.9-4.79,2.34-10.1,5.51-14.48,1.88-2.61,3.87-4.25,7.28-4.36,2.57-.08,5.17-.49,7.75-.78,11.92-1.35,23.81-2.91,35.72-4.36,7.12-.87,14.25-1.69,21.37-2.54,9.58-1.14,19.16-2.3,28.73-3.45,7.25-.87,14.49-1.77,21.74-2.61,7.74-.9,15.49-1.76,23.23-2.63Z" style="fill: #eaeaea;"/>
  <path d="m219.12,148.3c6.5,1.8,12.79-.62,19.15-1.12,9.5-.75,18.94-2.23,28.41-3.37,10.95-1.32,21.9-2.61,32.85-3.91,7.99-.95,15.99-1.86,23.98-2.84,8.98-1.1,17.94-2.26,26.91-3.39,4.92-.62,9.83-1.24,14.75-1.82.85-.1,1.77-.13,2.38.72-6.63,4.62-9.02,11.83-10.86,19.03-3.99,15.57-3.59,31.2,1.19,46.58,2.08,6.7,4.98,13.01,12.63,16.94-5.74.75-10.45,1.4-15.17,1.99-11.93,1.47-23.86,2.92-35.79,4.36-2.46.3-5-.09-7.37.92,0-6.25,0-12.49.01-18.74,1.37,0,2.68-.15,4.05-.48,11.82-2.82,20.32-15.2,19.9-28.23-.36-11.37-10.79-20.6-22.06-19.13-15.73,2.05-31.46,4.01-47.21,5.92-15.13,1.83-30.29,3.46-45.41,5.35-3.11.39-6.01,1.89-7.94,4.53-8.01,10.99-8.5,25.29-1.01,36.68,2.33,3.53,5.41,6.97,10.23,6.53,8.88-.81,17.72-2.09,26.59-3.1,8.86-1.01,17.65-2.8,26.62-2.83.09,4.24.17,8.47.26,12.71-.07,1.76-.15,3.52-.22,5.28-8.32.19-16.51,1.71-24.75,2.64-9.48,1.07-18.94,2.26-28.42,3.28-1.68.18-3.51.41-5.08-.68-5.91-4.97-8.46-11.95-11.28-18.78-1.57-7.63-2.75-15.29-2.39-23.13.2-4.45-.07-8.92.82-13.32,2.14-10.55,4.1-21.21,14.49-27.43-.14-.18-.28-.36-.42-.54.03-.21.08-.42.16-.62Z" style="fill: #dad4d4;"/>
  <path d="m7.19,108.74c-2.16-10.12-1.17-19.97,2.55-29.57,1.29-3.32,3.51-5.96,6.4-8.04,3.28.45,6.55,1.1,9.85,1.32,7.12.49,14.13,2.29,21.33,1.63.28.23.55.64.85.67,8.21.84,16.42,1.64,24.63,2.45,3.45,1.64,7.21,1.28,10.85,1.72,7.58.93,15.15,1.86,22.74,2.75,7.12.83,14.25,1.58,21.37,2.43,7.7.91,15.39,1.9,23.08,2.86-.08,1.81-1.24,3.18-1.98,4.71-5.07,10.46-5.59,21.46-4.07,32.73-10.09-1.09-20.19-2.17-30.28-3.29-6.52-.72-13.03-1.5-19.55-2.26-9.83-1.15-19.66-2.34-29.5-3.46-9.59-1.1-19.2-2.12-28.79-3.21-9.83-1.12-19.66-2.28-29.49-3.43Z" style="fill: #99e0d4;"/>
  <path d="m39.12,211.79c-7.18-.95-14.35-1.99-21.54-2.82-3.9-.45-6.46-2.55-8.59-5.64-4.47-6.46-6.82-13.79-7.82-21.35-1.81-13.66-1.95-27.34,2.79-40.63,1.93-5.4,4.18-10.52,8.79-14.32,1.09-.9,2.62-.78,3.43-1.98,11.3,1.58,22.66,2.66,34.01,3.9,5.07.55,10.3.57,15.23,2.27-8.44,12.62-10.53,26.92-11.26,41.65-.41,8.12.76,16.03,2.32,23.92l-.04.17c-6.23-.76-12.46-1.53-18.69-2.28-4.48-.54-4.94.07-3.88,4.11,1.2,4.57,3.7,8.59,5.26,13Z" style="fill: #fbae2c;"/>
  <path d="m65.4,131.23c-4.93-1.71-10.15-1.72-15.23-2.27-11.34-1.24-22.7-2.32-34.01-3.9-5.93-3.83-7.8-9.89-8.98-16.32,9.83,1.14,19.66,2.31,29.49,3.43,9.6,1.09,19.2,2.11,28.79,3.21,9.84,1.13,19.67,2.31,29.5,3.46,6.52.76,13.03,1.54,19.55,2.26,10.09,1.12,20.19,2.19,30.28,3.29.54,5.84,3.02,11.03,5.42,16.25-2.77.84-5.36-.51-8.05-.73-6.97-.56-13.91-1.42-20.86-2.25-7.67-.91-15.33-1.92-22.99-2.88-5.35-.67-10.69-1.56-16.06-1.92-5.64-.39-11.15-2.07-16.87-1.63Z" style="fill: #5cd3c7;"/>
  <path d="m361.55,36.79c-7.76.88-15.52,1.74-23.27,2.65-7.26.85-14.52,1.74-21.78,2.6-9.36,1.1-18.72,2.15-28.07,3.26-9.6,1.14-19.19,2.32-28.79,3.48-9.23,1.11-18.46,2.22-27.69,3.34-3.08.37-6.14.99-9.22,1.09-3.1.1-5,1.59-6.74,3.96-3.44,4.67-4.11,10.28-5.71,15.58-.05-3.46-.48-6.96-.07-10.36.91-7.62,2.48-15.09,8.89-20.38,6.46-1.88,13.18-2.02,19.78-2.91,9.56-1.29,19.14-2.4,28.72-3.55,9.22-1.1,18.45-2.13,27.68-3.23,9.47-1.12,18.92-2.3,28.39-3.43,9.35-1.12,18.72-2.12,28.05-3.33,5.1-.66,10.29-.72,15.26-2.23,1.06-.14,2.12-.27,3.19-.41-5.26,3.26-6.66,8.74-8.61,13.88Z" style="fill: #dad4d4;"/>
  <path d="m361.55,90.67c-7.74.88-15.49,1.73-23.23,2.63-7.25.84-14.49,1.74-21.74,2.61-9.58,1.15-19.15,2.3-28.73,3.45-7.12.85-14.25,1.67-21.37,2.54-11.91,1.46-23.8,3.01-35.72,4.36-2.58.29-5.18.7-7.75.78-3.41.1-5.39,1.75-7.28,4.36-3.16,4.38-3.6,9.68-5.51,14.48-.31-4.83-.37-9.7.75-14.4,1.52-6.37,2.94-12.94,9.65-16.31,7.71-.09,15.25-1.75,22.89-2.52,7.51-.76,14.99-1.8,22.48-2.71,9.83-1.2,19.65-2.43,29.48-3.58,9.35-1.1,18.71-2.07,28.06-3.17,9.22-1.08,18.43-2.26,27.64-3.4,4.91-.61,9.83-1.23,14.74-1.8.85-.1,1.77-.13,2.37.72-4.04,2.98-4.99,7.7-6.75,11.97Z" style="fill: #dad4d4;"/>
  <path d="m159.9,225.99c-5.72-.71-11.43-1.43-17.15-2.14-7.42-.92-14.84-1.87-22.27-2.75-5.12-.61-10.26-1.11-15.38-1.72-7.67-.92-15.33-1.95-23.01-2.85-5.26-.62-10.52-1.15-15.8-1.63-1.35-.12-2.74.18-3.86-.88-2.24-5.6-4.84-11.07-6.01-17.04,0,0,.04-.17.04-.17,1.12.07,2.24.1,3.35.23,13.03,1.46,26.05,2.95,39.08,4.39,7.5.83,15.02,1.56,22.52,2.36,10.09,1.08,20.11,2.86,30.29,2.93.47.24.95.48,1.42.72.12.97.2,1.95.35,2.91.9,5.72,4.59,10.31,6.41,15.65Z" style="fill: #f7931f;"/>
  <path d="m23.41,17.28c2.48,2.95,6.08,1.36,9.1,2.04,5.12,1.14,10.47,1.25,15.73,1.79-3.98,8.21-6.42,16.74-6.1,25.99.19,5.29-.11,10.61.88,15.85-1.45-.23-2.9-.52-4.36-.7-10.23-1.26-20.47-2.5-30.7-3.75-2.51-7.33-1.96-14.89-1.41-22.39.22-3.02,1.12-5.98,2.19-8.87,2.53-6.86,6.6-11.31,14.68-9.96Z" style="fill: #5e5eea;"/>
  <path d="m312.19,203.65c0,6.25,0,12.49-.01,18.74v27.47l-.91.28c-5.66-7.49-11.32-14.98-17.3-22.89-5.83,9.66-11.52,19.08-17.2,28.49-.26-.02-.52-.04-.78-.06,0-9.6,0-19.21,0-28.81.07-1.76.15-3.52.22-5.28,5.78-2.39,10.93-5.57,14.95-10.52,6.9-8.5,9.7-18.17,8.91-28.98,3.93-.98,7.93-1.53,11.98-1.62.04,7.73.09,15.45.13,23.18Z" style="fill: #c1272d;"/>
  <path d="m206.46,213.35c2.82,6.82,5.37,13.8,11.28,18.78-4.35.78-8.58-.59-12.84-.96-6.22-.55-12.38-1.78-18.64-2.04-.95-.04-1.65-.4-2.37-.89-2.79-5.73-6.48-11.12-6.81-17.78,1.85,0,3.67.1,5.53.33,7.93.99,15.89,1.73,23.84,2.57Z" style="fill: #f7931f;"/>
  <path d="m177.09,210.45c.33,6.67,4.01,12.06,6.81,17.78-6.46-.07-12.82-1.1-19.21-1.96-1.58-.21-3.19-.2-4.79-.29-1.83-5.34-5.51-9.93-6.41-15.65-.15-.97-.24-1.94-.35-2.91,2.56.23,5.15.28,7.67.72,5.41.95,11.02.42,16.28,2.31Z" style="fill: #f15b24;"/>
  <path d="m7.96,58.51c10.23,1.25,20.47,2.49,30.7,3.75,1.46.18,2.91.46,4.36.7.2.03.41.07.61.1.3,3.99,1.99,7.51,3.71,11.02-7.2.66-14.22-1.14-21.33-1.63-3.3-.23-6.57-.87-9.85-1.32-4.78-2.88-6.98-7.43-8.19-12.63Z" style="fill: #5b53d8;"/>
  <path d="m56.42,196.97c1.17,5.97,3.77,11.44,6.01,17.04-6.02.26-11.9-1.13-17.84-1.74-1.82-.19-3.67-.12-5.47-.48-1.56-4.41-4.07-8.42-5.26-13-1.06-4.03-.6-4.64,3.88-4.11,6.23.75,12.46,1.52,18.69,2.28Z" style="fill: #f15b24;"/>
  <path d="m219.09,41.99c-6.42,5.29-7.98,12.75-8.89,20.38-.41,3.4.02,6.91.07,10.36-.3,3.34,1.05,6.45,1.45,9.69-3.7-.34-7.41-.61-11.11-1.03-9.72-1.11-19.43-2.29-29.15-3.43-7.26-.85-14.53-1.66-21.78-2.53-7.25-.87-14.49-1.86-21.75-2.7-9.6-1.1-19.22-2.06-28.83-3.16-9.59-1.1-19.17-2.29-28.75-3.44-.17-.04-.33-.09-.5-.14.54-2.03-.71-3.82-.72-5.83-.02-7.55-.05-15.09,1.58-22.5,1-4.54,1.58-9.3,5.1-12.87,8.81.3,17.48,1.79,26.21,2.84,9.59,1.16,19.2,2.12,28.8,3.2,7.01.78,14.03,1.57,21.04,2.42,7.49.9,14.97,1.89,22.46,2.81,9.95,1.22,19.89,2.44,29.85,3.6,5,.58,10.15.23,14.91,2.33Z" style="fill: #5e5eea;"/>
  <path d="m75.81,24.8c-3.52,3.57-4.1,8.33-5.1,12.87-1.63,7.41-1.6,14.95-1.58,22.5,0,2.01,1.25,3.8.72,5.83-8.74-.98-17.48-1.96-26.23-2.94-.2-.04-.41-.07-.61-.1-.99-5.25-.69-10.56-.88-15.85-.32-9.25,2.12-17.78,6.1-25.99,9.27.64,18.58,1.01,27.58,3.69Z" style="fill: #99e0d4;"/>
  <path d="m70.35,66.13c9.58,1.15,19.16,2.34,28.75,3.44,9.6,1.1,19.22,2.06,28.83,3.16,7.26.83,14.5,1.82,21.75,2.7,7.26.87,14.52,1.68,21.78,2.53,9.72,1.14,19.43,2.32,29.15,3.43,3.69.42,7.4.69,11.11,1.03,1.91,4.4,3.26,9.15,7.56,12.05-4.37.26-8.63-.68-12.94-1.16-9.71-1.07-19.42-2.21-29.12-3.32-8.71-1.72-17.52-2.54-26.37-3.04-7.69-.96-15.38-1.94-23.08-2.86-7.12-.85-14.25-1.59-21.37-2.43-7.58-.89-15.16-1.82-22.74-2.75-3.64-.44-7.4-.09-10.85-1.72-1.31-3.58-2.22-7.25-2.47-11.06Z" style="fill: #5b53d8;"/>
  <path d="m177.22,89.99c9.71,1.11,19.41,2.25,29.12,3.32,4.3.47,8.57,1.42,12.94,1.16.6-.05,1.06.14,1.34.69-6.71,3.37-8.13,9.95-9.65,16.31-1.12,4.71-1.06,9.57-.75,14.4-.27,2.05.03,4.04.58,6-3.57-.33-7.14-.61-10.7-1.01-9.92-1.12-19.84-2.28-29.76-3.43-.23-.55-.64-1.1-.65-1.66-.19-6.55-.37-13.12.9-19.57,1.15-5.8,2.34-11.66,6.62-16.22Z" style="fill: #99e0d4;"/>
  <path d="m170.35,127.44c9.92,1.15,19.83,2.31,29.76,3.43,3.56.4,7.13.68,10.7,1.01.96,3.02,1.42,6.19,2.81,9.1,1.36,2.83,3,5.38,5.5,7.32-.08.2-.13.41-.16.62-4.64-.47-9.3-.87-13.93-1.42-10.52-1.27-21.02-2.61-31.53-3.92.51-1.04-.14-1.89-.44-2.81-1.41-4.34-3.05-8.63-2.72-13.32Z" style="fill: #5cd3c7;"/>
  <path d="m312.19,203.65c-.04-7.73-.09-15.45-.13-23.18,3.42-.52,6.85-.94,10.25-1.6,3.21-.62,5.09-3.38,4.75-6.59-.34-3.15-2.9-5.45-6.14-5.25-2.83.18-5.65.61-8.47.96-9.32,1.15-18.63,2.32-27.95,3.49-5.88.74-11.79,1.32-17.63,2.34-3.21.56-4.91,3.98-4.19,7.21.61,2.74,4.02,5.15,6.84,4.41,2.24-.59,4.44-.4,6.66-.48-.07,7.97-.15,15.93-.22,23.9-8.97.04-17.75,1.82-26.62,2.83-8.87,1.01-17.71,2.28-26.59,3.1-4.82.44-7.91-2.99-10.23-6.53-7.5-11.39-7.01-25.68,1.01-36.68,1.93-2.64,4.82-4.14,7.94-4.53,15.12-1.9,30.28-3.52,45.41-5.35,15.74-1.9,31.48-3.87,47.21-5.92,11.27-1.47,21.7,7.76,22.06,19.13.41,13.04-8.08,25.42-19.9,28.23-1.37.33-2.68.48-4.05.48Z" style="fill: #eaeaea;"/>
  <path d="m173.5,143.58c10.51,1.31,21.02,2.66,31.53,3.92,4.63.56,9.29.95,13.93,1.42.14.18.28.36.42.54-10.39,6.22-12.36,16.87-14.49,27.43-.89,4.4-.62,8.87-.82,13.32-.36,7.85.82,15.5,2.39,23.13-7.95-.83-15.91-1.57-23.84-2.57-1.86-.23-3.68-.32-5.53-.33-5.27-1.89-10.88-1.36-16.28-2.31-2.52-.44-5.11-.49-7.67-.72-.47-.24-.95-.48-1.42-.72-.81-11.05-1.91-22.02-1.05-33.2.74-9.53,2.47-18.57,6.5-27.18.69-1.48,1.46-2.89,1.24-4.6,5.03.62,10.06,1.24,15.1,1.85Z" style="fill: #fbb22e;"/>
  <path d="m275.96,208.88c.07-7.97.15-15.93.22-23.9,7.92-1.34,15.87-2.43,23.9-2.89.79,10.81-2.01,20.48-8.91,28.98-4.02,4.95-9.18,8.14-14.95,10.52-.09-4.24-.17-8.47-.26-12.71Z" style="fill: #ed1c24;"/>
  <path d="m173.5,143.58c-5.03-.62-10.06-1.24-15.1-1.85-2.72-.45-5.58.26-8.18-1.09-2.4-5.22-4.88-10.41-5.42-16.25-1.51-11.26-1-22.27,4.07-32.73.74-1.53,1.91-2.9,1.98-4.71,8.85.5,17.66,1.33,26.37,3.04-4.29,4.56-5.48,10.42-6.62,16.22-1.28,6.45-1.09,13.03-.9,19.57.02.56.43,1.11.65,1.66-.34,4.69,1.3,8.99,2.72,13.32.3.92.95,1.77.44,2.81Z" style="fill: #6a6aec;"/>
  <path d="m70.35,66.13c.26,3.81,1.17,7.48,2.47,11.06-8.21-.81-16.43-1.61-24.64-2.45-.3-.03-.57-.44-.85-.67-1.72-3.51-3.41-7.03-3.71-11.02,8.74.98,17.48,1.96,26.23,2.94.17.05.33.1.5.14Z" style="fill: #5cd3c7;"/>
  <path d="m150.22,140.63c2.59,1.35,5.46.64,8.18,1.09.22,1.7-.54,3.12-1.24,4.6-4.03,8.62-5.76,17.65-6.5,27.18-.87,11.18.23,22.15,1.05,33.2-10.18-.07-20.2-1.85-30.29-2.93-7.51-.8-15.02-1.53-22.52-2.36-13.03-1.44-26.05-2.93-39.08-4.39-1.11-.12-2.23-.15-3.35-.23-1.56-7.9-2.73-15.8-2.32-23.92.74-14.72,2.82-29.03,11.26-41.65,5.71-.43,11.22,1.25,16.87,1.63,5.37.37,10.71,1.26,16.06,1.92,7.66.96,15.32,1.96,22.99,2.88,6.94.82,13.89,1.69,20.86,2.25,2.68.22,5.27,1.57,8.05.73Z" style="fill: #ffca3a;"/>
  <path d="m300.08,182.09c-8.03.47-15.98,1.55-23.9,2.89-2.22.07-4.42-.11-6.66.48-2.81.74-6.22-1.68-6.84-4.41-.72-3.24.97-6.65,4.19-7.21,5.83-1.02,11.75-1.6,17.63-2.34,9.31-1.17,18.63-2.33,27.95-3.49,2.82-.35,5.64-.78,8.47-.96,3.25-.2,5.81,2.1,6.14,5.25.34,3.21-1.54,5.97-4.75,6.59-3.39.65-6.83,1.07-10.25,1.6-4.06.08-8.05.64-11.98,1.62Z" style="fill: #dad4d4;"/>
</svg>