<?xml version="1.0" encoding="UTF-8"?>
<svg id="Layer_1" data-name="Layer 1" width="24" height="24" xmlns="http://www.w3.org/2000/svg" viewBox="0 0 300.29 383.13">
  <path d="m255.88,142.19c-1.61-24.27-9.99-45.75-26.34-63.94-.98-1.09-1.86-2.36-3.35-2.88-3.52-4.97-8.44-8.4-13.3-11.81-14.87-10.43-31.23-16.66-49.42-18.93-10.52-1.31-20.79-1.04-31.06.51-14.51,2.18-28,7.45-40.3,15.5-6.43,4.21-12.85,8.52-17.63,14.75-6.86,5.74-11.71,13.08-16.26,20.64-6.38,10.62-10.13,22.25-12.5,34.32-.76,3.87-.65,7.9-.94,11.86-13.53,5.75-27.99,9.36-40.49,17.51-.57.37-1.42.31-2.14.45-1.5-1.75-.58-3.81-.62-5.7-.13-7.34-.68-14.75.04-22.03,1.46-14.7,5.02-28.97,11.05-42.53C31.07,48.38,62.21,20.96,105.23,6.89c8.7-2.84,17.6-4.92,26.81-5.45,1.65-.09,3.39-.37,4.81-1.44h25.44c4.26,1.99,8.95,1.27,13.4,2.15,55.72,11.02,94.64,42.32,115.3,95.55,4.54,11.69,6.42,23.98,7.64,36.47.88,8.98.42,17.81-.26,26.71-.93-.61-1.85-1.25-2.81-1.82-12.45-7.46-26.38-11.44-39.69-16.87Z" style="fill: #a78cd6;"/>
  <path d="m46.4,162.35c1.8.37,2.71-.94,3.75-1.98,5.76-5.73,12.74-8.47,20.81-8.45,4.94.02,9.91-.52,14.68,1.63,9.7,4.38,14.21,12.38,16,22.33,3.2,17.78,6.34,35.56,9.47,53.36,2.61,14.87,5.5,29.7,7.65,44.63,2.21,15.3-8.94,28.36-24.84,30.78-7.59,1.15-14.49.31-21.21-3.29-3.4-1.82-5.32-5.22-8.43-7.3-.48-2.86-2.46-5.08-3.15-7.92-2.8-11.57-4.4-23.35-6.55-35.03-3.29-17.89-6.37-35.82-9.47-53.74-1.45-8.39-3.83-16.73-1.95-25.39.63-3.36,3.33-6.02,3.22-9.62Z" style="fill: #d4d4ff;"/>
  <path d="m236.35,294.06c-3.02,2.01-4.89,5.29-8.11,7.11-9.64,5.44-19.49,5.21-29.38,1.06-14.83-6.23-19.13-18.16-16.2-33.93,3.92-21.05,7.39-42.19,11.12-63.27,1.92-10.85,3.68-21.74,6.06-32.49,2.33-10.55,8.66-18.33,19.57-20.15,11.71-1.96,23.17-.69,32,8.88.74.8,1.4,1.81,2.7,1.81,1.12,2.96,2.24,5.92,3.36,8.88.67,2.68.7,5.41.61,8.14-.23,7.47-2.22,14.68-3.44,21.99-2.71,16.36-5.38,32.73-8.64,48.99-2.89,14.39-3.44,29.34-9.65,42.99Z" style="fill: #d4d4ff;"/>
  <path d="m43.19,171.97c-1.89,8.66.5,17,1.95,25.39,3.09,17.92,6.17,35.85,9.47,53.74,2.15,11.68,3.74,23.47,6.55,35.03.69,2.84,2.67,5.06,3.15,7.92-3.74.01-7.49.02-11.23.03-3.75-.24-7.51-.48-11.26-.72-17.48-3.41-29.2-13.78-34.02-30.65-3.2-11.19-4.35-22.96-6.31-34.49-.94-5.56-2.16-11.01-.98-16.85,1.4-6.95,3.79-13.3,7.87-19.05.27-.39.35-.91.52-1.37,9.08-10.58,21.79-14.61,34.31-18.99Z" style="fill: #8ee2e1;"/>
  <path d="m236.35,294.06c6.21-13.65,6.76-28.6,9.65-42.99,3.26-16.25,5.93-32.63,8.64-48.99,1.21-7.32,3.2-14.52,3.44-21.99.08-2.73.06-5.46-.61-8.14,12.54,4.34,25.21,8.45,34.3,19.01,1.92,3.6,4.14,7.09,5.71,10.84,3.23,7.76,3.41,15.87,1.9,24.07-2.3,12.52-4.24,25.12-6.98,37.55-3.45,15.7-19.54,28.73-35.54,30.05-6.85.57-13.67.45-20.51.6Z" style="fill: #8fe2e1;"/>
  <path d="m74.47,75.37c4.78-6.23,11.2-10.53,17.63-14.75,12.3-8.05,25.79-13.32,40.3-15.5,10.27-1.54,20.53-1.82,31.06-.51,18.19,2.27,34.55,8.5,49.42,18.93,4.86,3.41,9.78,6.85,13.3,11.81-2.15,2.25-4.35,4.44-6.44,6.75-5.61,6.21-16.92,8.69-25.2,3.17-8.67-5.78-18.17-9.39-28.37-11.55-19.73-4.18-38.18-.83-55.58,8.89-5.01,2.8-9.78,5.74-15.82,5.74-5.2,0-9.38-2.12-13.03-5.49-2.55-2.36-4.86-4.99-7.28-7.5Z" style="fill: #ebca60;"/>
  <path d="m142.8,329.56c10.92-1.23,21.26-.25,30.38,6.88,14.43,11.29,12.49,30.61-1.24,39.79-3.17-1.19-6.56-.57-9.82-1.29-9.45-2.07-17.32-6.1-21.08-15.69-2.63-6.7-2.48-13.55-1.04-20.49.66-3.16,2.52-5.94,2.8-9.21Z" style="fill: #a78cd6;"/>
  <path d="m41.8,293.37c3.75.24,7.51.48,11.26.72,0,10.21-.02,20.41,0,30.61.01,14.47,10.97,25.48,25.42,25.49,13.19.01,26.38-.03,39.57-.05-1.04,3.77-.9,7.55-.06,11.34-13.2-.02-26.4-.02-39.6-.05-20.61-.05-36.54-16.04-36.56-36.67,0-10.46-.02-20.92-.02-31.38Z" style="fill: #d4d4ff;"/>
  <path d="m43.19,171.97c-12.51,4.38-25.22,8.41-34.31,18.99-3.97-9.89-6.03-20.21-6.74-30.81.72-.14,1.57-.08,2.14-.45,12.5-8.16,26.96-11.76,40.49-17.51.24,6.74-.1,13.54,1.63,20.16.11,3.6-2.59,6.26-3.22,9.62Z" style="fill: #807ccf;"/>
  <path d="m291.77,190.95c-9.09-10.56-21.76-14.66-34.3-19.01-1.12-2.96-2.24-5.92-3.36-8.89.82-6.94,1.68-13.88,1.77-20.88,13.31,5.44,27.24,9.41,39.69,16.87.96.57,1.87,1.21,2.81,1.82-1.06,10.28-3.08,20.34-6.61,30.07Z" style="fill: #807ccf;"/>
  <path d="m117.98,361.47c-.84-3.78-.98-7.56.06-11.34,3.92-12.07,12.81-18.16,24.75-20.58-.28,3.27-2.15,6.04-2.8,9.2-1.44,6.93-1.59,13.79,1.04,20.49,3.76,9.59,11.63,13.62,21.08,15.69,3.27.72,6.66.1,9.82,1.29-9.81,8.2-28.7,9.24-40.12,2.32-6.69-4.05-11.79-9.31-13.83-17.08Z" style="fill: #817ccf;"/>
</svg>