<?xml version="1.0" encoding="UTF-8"?>
<svg id="Layer_1" data-name="Layer 1" width="24" height="24" xmlns="http://www.w3.org/2000/svg" viewBox="0 0 383.09 383.85">
  <path d="m180.32,383.85H23.95c-3.75-1.93-7.96-2.8-11.39-5.53C5.03,372.35.05,365.04.05,355.14,0,278.73.05,202.31,0,125.9c0-11.04,8.61-22.4,18.53-26.2,6.85-2.62,14.06-2.08,21.17-2.36,17.95.04,35.91.12,53.86.12,18.45,0,36.91-.07,55.36-.12,3.49,0,6.97,0,10.46,0,.25,0,.49,0,.74.01l20.23.23c0,95.42-.01,190.85-.02,286.27Z" style="fill: #3555a2;"/>
  <path d="m180.32,383.85c0-95.42.01-190.85.02-286.27,1.99-.04,3.98-.11,5.97-.11,17.69-.05,35.38-.08,53.07-.12,26.47,0,52.93.01,79.4.02,3.61.03,7.23.06,10.84.09,18.27.16,30.99,13.14,31.01,31.09.03,22.36.03,44.71.04,67.07-11.46.02-22.92-.09-34.38.09-8.45.13-16.91-.58-25.35.64-20.3,2.94-37.11,21.81-37.56,42.43-.58,26.36,19.4,46.83,45.73,46.86,17.19.02,34.38.03,51.57.05-.01,22.69.13,45.39-.11,68.08-.11,10.39-4.33,19.03-13.14,24.98-3.5,2.36-7.56,3.61-11.48,5.11h-155.63Z" style="fill: #1b3555;"/>
  <path d="m360.68,195.62c5.78.19,11.61-.37,16.75,3.54,2.78,2.11,3.5,5.38,5.66,7.75v68.22c-2.45,1.71-3.01,4.8-5.28,6.79-5.13,4.49-11.18,3.63-17.12,3.76-17.19-.02-34.38-.03-51.57-.05-26.33-.03-46.31-20.5-45.73-46.86.46-20.62,17.27-39.49,37.56-42.43,8.45-1.22,16.9-.51,25.35-.64,11.46-.17,22.92-.07,34.38-.09Zm-52.94,56.27c6.73-.31,11.68-4.47,11.54-11.29-.14-6.79-3.96-10.46-11.29-11.11-5.82-.52-10.91,4.9-10.95,11.06-.03,6.24,4.76,11.32,10.69,11.35Z" style="fill: #3555a2;"/>
  <path d="m124.88,29.94c12.35-4.54,24.69-9.1,37.04-13.61,13.74-5.03,27.5-9.99,41.22-15.07,1.12-.41,2.53-.09,3.37-1.25h7.48c10.44,3.17,13.52,12.07,16.59,21.11,3.55,10.46,7.38,20.83,11.09,31.24-.75.08-1.5.17-2.25.25-21.76-.03-43.51-.09-65.27-.09-7.54,0-14.38,7.62-14.15,14.69.33,9.83.01,19.68-.03,29.52-.2.21-.4.41-.6.62-3.49,0-6.97,0-10.46,0-2.02-5.74-4.01-11.49-6.06-17.22-5.98-16.73-11.98-33.45-17.98-50.17Z" style="fill: #fe1b5c;"/>
  <path d="m124.88,29.94c5.99,16.72,12,33.45,17.98,50.17,2.05,5.73,4.04,11.48,6.06,17.22-18.45.04-36.91.12-55.36.12-17.95,0-35.91-.07-53.86-.12-1.57-6.21-4.38-11.98-6.09-18.16-2.07-7.48,4.04-17.47,10.21-19.75,16.64-6.16,33.35-12.13,50.03-18.18,10.35-3.76,20.69-7.54,31.04-11.31Z" style="fill: #ff5857;"/>
  <path d="m159.97,96.72c.04-9.84.36-19.69.03-29.52-.24-7.07,6.61-14.69,14.15-14.69,21.76,0,43.51.06,65.27.09-.01,14.91-.02,29.83-.04,44.74-17.69.04-35.38.07-53.07.12-1.99,0-3.98.07-5.97.11-6.74-.08-13.49-.15-20.23-.23.01-.22-.03-.44-.14-.63Z" style="fill: #57c67f;"/>
  <path d="m159.97,96.72c.11.2.15.41.14.63-.25,0-.49,0-.74-.01.2-.21.4-.41.6-.62Z" style="fill: #f02a5f;"/>
  <path d="m239.39,97.35c.01-14.91.02-29.83.04-44.74.75-.08,1.5-.17,2.25-.25,20.41.04,40.82.08,61.23.12,9.58.02,15.81,6.2,15.83,15.7.02,9.73.03,19.46.05,29.18-26.47,0-52.93-.01-79.4-.02Z" style="fill: #43a071;"/>
  <path d="m307.74,251.89c-5.93-.02-10.73-5.11-10.69-11.35.03-6.16,5.12-11.58,10.95-11.06,7.34.65,11.15,4.33,11.29,11.11.14,6.82-4.82,10.99-11.54,11.29Z" style="fill: #d5e7fd;"/>
</svg>