<?xml version="1.0" encoding="UTF-8"?>
<svg id="Layer_1" data-name="Layer 1" width="24" height="24" xmlns="http://www.w3.org/2000/svg" viewBox="0 0 401.68 384">
  <path d="m274.18,0c-4.48.98-9.02,1.76-13.43,2.97-34.14,9.37-58.13,40.29-58.57,75.64-.2,16.25-.09,32.5-.04,48.74.03,9.46,6.74,16.5,15.67,16.63,8.95.13,16.06-6.66,16.19-16.11.22-15.62-.02-31.25.1-46.87.18-23.36,14.62-42.21,36.52-47.54,3.96-.96,8.15-1.29,12.24-1.35,12.62-.17,25.25-.11,37.87-.05,28.11.13,48.85,20.7,48.88,48.75.07,74.11.08,148.23,0,222.34-.03,28.02-20.78,48.61-48.88,48.76-12.5.07-25,.06-37.49,0-28.26-.12-48.89-20.63-49.13-48.95-.13-15.37.06-30.75-.06-46.12-.08-10.1-7.21-17.18-16.61-16.84-7.73.28-15.04,6.4-15.09,14-.15,20.23-.96,40.58.81,60.67,3.07,34.78,33.15,64.22,67.84,68.54,1.08.13,2.13.51,3.19.77,18.25,0,36.5,0,54.75,0,.83-.22,1.65-.55,2.5-.66,32.36-4.07,58.74-26.87,67.35-58.32,1.17-4.29,1.94-8.68,2.9-13.02,0-80,0-160,0-240-.23-.69-.57-1.36-.68-2.06-4.73-30.61-21.31-52.15-49.85-64.07C344.36,3.03,336.85,1.91,329.68,0c-18.5,0-37,0-55.5,0Z"/>
  <g>
    <path d="m303.06,203.53c-1.7,0-2.81,0-3.92,0-55.46.09-110.92.19-166.38.26-1.77,0-3.6.03-5.29-.42-5.6-1.48-8.96-7-8.22-13.17.66-5.5,5.23-9.88,10.81-9.97,10.13-.15,20.26-.13,30.39-.16,46.3-.1,92.61-.2,138.91-.3.85,0,1.7,0,3.08,0-1.05-1.17-1.68-1.91-2.34-2.6-15.14-15.79-30.27-31.6-45.44-47.36-3.52-3.65-4.97-7.87-3.42-12.88,2.34-7.58,11.25-10.53,17.43-5.84.71.54,1.37,1.18,2,1.83,17.16,17.88,34.38,35.69,51.45,53.67,12.24,12.89,13.63,32.2,3.58,46.43-1.15,1.63-2.46,3.17-3.84,4.61-17.01,17.77-34.06,35.5-51.07,53.28-3.51,3.67-7.55,5.19-12.35,3.59-7.62-2.54-10.28-12.33-5.17-18.79.9-1.14,1.96-2.15,2.96-3.2,14.83-15.46,29.66-30.92,44.48-46.38.66-.69,1.28-1.43,2.34-2.62Z"/>
    <path d="m8.89,180.07h180.26v23.65H8.89C3.98,203.72,0,199.73,0,194.83v-5.87C0,184.05,3.98,180.07,8.89,180.07Z"/>
  </g>
</svg>