<?xml version="1.0" encoding="UTF-8"?>
<svg id="Layer_1" data-name="Layer 1" width="24" height="24" xmlns="http://www.w3.org/2000/svg" viewBox="0 0 265.1 383.16">
  <path d="m163.23,0c.12,1.66,1.42,1.34,2.49,1.55,13.42,2.6,25.23,8.56,34.75,18.28,11.1,11.32,17.8,24.92,18.92,41.04,1.21,17.37,1.57,34.76,1.45,52.17-26.61.04-53.22.1-79.83.1-15.29,0-30.59-.07-45.88-.11-.01-9.77-.03-19.54-.04-29.31,2.47-4.43,2.08-8.86,0-13.29.27-6.19.24-12.42.9-18.57.6-5.59.84-11.3,2.84-16.68.26,8.8,3.97,12.53,12.18,11.93,4.02-.29,6.97-2.46,8.2-6.4,1.1-3.52,1.23-6.94-1.31-10.16-4.4-5.59-14.12-5.66-18.05,1.48-.05-.87-.34-1.81-.1-2.58,2.99-9.46,5.72-19.06,13.38-26.15.97-.9,2.21-1.7,2.22-3.29h42.65c1,1.06,2,1.07,2.99,0h2.24Zm2.99,36.64c-.03-5.77-4.96-10.45-10.93-10.39-5.45.05-10.88,5.4-10.77,10.6.12,5.46,5.87,11.22,11.03,11.03,5.56-.21,10.7-5.62,10.67-11.24Zm22.45,40.71c0-6.81-3.83-10.82-10.34-10.82-5.65,0-10.72,5.11-10.61,10.7.09,5.02,5.53,10.85,10.3,11.05,5.64.23,10.66-4.92,10.65-10.93Zm-66.69-.6c-.1,5.81,4.72,11.41,9.84,11.44,5.79.03,11.17-5.22,11.3-10.94.13-5.41-4.21-10.57-10.79-10.72-5.74-.13-10.26,4.37-10.36,10.21Z" style="fill: #efe7e4;"/>
  <path d="m95.08,83.72c.01,9.77.03,19.54.04,29.31-1.52.06-3.04.12-4.56.18-3.19-.01-6.38-.03-9.58-.04-12.26-.09-24.51-.18-36.77-.27.02-9.21-.5-18.46.21-27.62.91-11.71-.21-23.53,2.74-35.15C53.46,25.4,75.35,5.18,100.44,1.41c2.22-.33,4.4-.73,6.64-.69,1.28-.13,2.71.55,3.77-.72h4.49c0,1.59-1.24,2.39-2.22,3.29-7.66,7.09-10.39,16.69-13.38,26.15-.24.77.05,1.72.1,2.58-.34,1.05-.69,2.1-1.03,3.16-1.99,5.38-2.23,11.09-2.84,16.68-.66,6.15-.63,12.38-.9,18.57-.66-.56-1.31-1.14-2-1.67-4.62-3.49-10.99-2.84-14.72,1.49-3.92,4.54-3.58,10.36.86,14.6,4.51,4.31,10.09,3.91,15.87-1.14Z" style="fill: #dad0cb;"/>
  <path d="m110.85,0c-1.06,1.27-2.49.59-3.77.72.02-.24.03-.48.02-.72h3.74Z" style="fill: #efe7e4;"/>
  <path d="m160.98,0c-1,1.07-2,1.06-2.99,0h2.99Z" style="fill: #fff;"/>
  <path d="m90.56,113.21c1.52-.06,3.04-.12,4.56-.18,15.29.04,30.59.12,45.88.11,26.61,0,53.22-.07,79.83-.1,9.28,1.44,15.84,6.36,19.38,15.15.09,2.42.18,4.85.26,7.27-.08,1.2-.16,2.41-.24,3.61-.75.47-1.14,1.11-1.48,1.97-3.21,8.09-9.45,12.15-17.9,13.14-14.09-.04-28.18-.1-42.27-.12-29.55-.05-59.11-.07-88.66-.11-.91-.37-1.8-.79-2.72-1.11-13.09-4.56-17.93-20.7-9.57-31.68,2.66-3.49,6.58-5.11,10.04-7.43.98-.1,2.04.27,2.88-.53Z" style="fill: #f1d333;"/>
  <path d="m258.33,168.34c0,18.06.54,36.14-.17,54.17-.66,16.73-6.19,32.06-16.73,45.4-12.19,15.41-27.92,25.2-46.96,29.53-5.57,1.27-11.32,1.96-17.17,1.81-9.33-.24-18.67.04-28.01.1-5.58,0-11.15,0-16.73-.01-5.51,0-11.01,0-16.52,0-.24-.1-.48-.1-.72,0-9.83-.06-19.67-.17-29.5-.17-16.12,0-30.68-4.9-43.95-13.88-15.97-10.81-26.53-25.63-32.11-44.02-1.81-5.98-3.04-12.06-3.01-18.4.1-18.18.03-36.37.02-54.55,3.77,1.6,7.54,1.22,11.31.01.05,18.07.13,36.14.13,54.22,0,5.43,1.19,10.62,2.73,15.77,4.71,15.81,13.97,28.42,27.54,37.57,9.39,6.33,19.81,11.11,31.37,11.24,32.15.36,64.31.27,96.47.35,6.78.02,13.47-.45,20.06-2.38,14.12-4.13,25.83-12.01,35.09-23.2,11.07-13.38,15.47-29.25,15.49-46.45.02-15.7.05-31.41.07-47.11,3.77,1.64,7.54,1.22,11.3-.01Z" style="fill: #4e5961;"/>
  <path d="m150.51,354.52c9.71.03,19.43.08,29.14.1,11.59.03,17.74,7.75,15.06,18.91-1.12,4.64-7.42,9.52-12.88,9.53-23.66.05-47.33-.02-70.99-.05-.01-1.27-1.12-1.5-1.92-2.01-9.31-5.91-9.28-18.28.07-24.25.82-.52,1.88-.8,1.87-2.06,1.24-.07,2.48-.15,3.72-.22.25.01.51.03.76.04l.34.04.34-.06c.26,0,.52.02.78.02,5.25.01,10.5.02,15.75.04.26,0,.52,0,.77,0,4.98,0,9.96,0,14.95,0,.36,0,.72,0,1.08,0,.15-.01.29-.04.43-.09.25.03.5.05.75.08Z" style="fill: #5e6b75;"/>
  <path d="m87.68,113.74c-3.46,2.32-7.38,3.94-10.04,7.43-8.36,10.98-3.53,27.12,9.57,31.68.92.32,1.81.74,2.72,1.11-1.6.06-3.21.17-4.81.17-13.86.04-27.73.07-41.59.1-9.42-1.12-15.26-6.66-18.71-15.16l-.2-3.63c.08-2.44.16-4.88.23-7.32,2.46-5.91,5.88-10.88,12.15-13.44,1.92-.78,3.77-.96,5.72-1,.25-.16.5-.32.74-.48.25-.11.5-.21.75-.32,12.26.09,24.51.18,36.77.27,2.15,1.17,4.47.27,6.69.57Z" style="fill: #e7a52e;"/>
  <path d="m24.85,128.14c-.08,2.44-.16,4.88-.23,7.32-.38.63-.82,1.23-1.13,1.9-2.27,4.87-5.93,7.24-11.46,7.14-6.3-.12-9.45-3.96-11.87-8.98-.02-8.21-.08-16.43-.03-24.64.05-7.3,5.34-12.8,12.19-12.84,7.1-.04,12.4,5.43,12.47,12.94.06,5.72.04,11.45.06,17.17Z" style="fill: #efe7e4;"/>
  <path d="m240.48,135.45c-.09-2.42-.18-4.85-.26-7.27.03-5.72.03-11.45.09-17.17.07-7.35,5.56-13.03,12.48-12.99,6.85.04,12.13,5.54,12.18,12.84.05,8.21-.02,16.42-.03,24.64-.25.41-.53.8-.73,1.23-1.98,4.35-5.06,7.23-10.02,7.69-5.64.52-9.92-1.45-12.41-6.74-.37-.78-.86-1.49-1.3-2.23Z" style="fill: #efe7e4;"/>
  <path d="m132.53,354.54c-5.25-.01-10.5-.02-15.75-.04-.23-.19-.47-.37-.7-.56-.18-.28-.35-.56-.53-.83,0-17.66,0-35.33,0-52.99.16-.26.33-.52.49-.77,5.51,0,11.01,0,16.52,0,0,18.19,0,36.39,0,54.58-.01.21-.02.42-.03.63Z" style="fill: #e7a52e;"/>
  <path d="m110.85,354.69c0,1.26-1.05,1.53-1.87,2.06-9.35,5.97-9.38,18.34-.07,24.25.81.51,1.91.74,1.92,2.01-9.72.03-19.45.33-29.15-.03-5.26-.2-8.97-3.55-11.26-8.32-2.48-5.18-1.62-10.01,1.73-14.44,2.92-3.87,6.78-5.8,11.79-5.69,8.97.2,17.94.13,26.91.17Z" style="fill: #4e5961;"/>
  <path d="m132.56,353.92c0-18.19,0-36.39,0-54.58,5.57,0,11.15,0,16.73.01-.06,18.19-.12,36.38-.18,54.57-.28.21-.57.42-.85.62-4.98,0-9.96,0-14.95,0-.25-.21-.5-.42-.74-.62Z" style="fill: #f1d333;"/>
  <path d="m240.48,135.45c.44.74.93,1.46,1.3,2.23,2.49,5.29,6.77,7.26,12.41,6.74,4.96-.46,8.05-3.35,10.02-7.69.2-.43.49-.82.73-1.23.01,6.31-.23,12.64.12,18.93.34,6.04-1.86,10.54-6.74,13.91-3.77,1.23-7.53,1.66-11.3.01-4.88-3.41-6.98-8.08-6.76-14.03.19-5.08,0-10.17-.03-15.26.08-1.2.16-2.41.24-3.61Z" style="fill: #dad0cb;"/>
  <path d="m.16,135.5c2.42,5.02,5.57,8.87,11.87,8.98,5.53.1,9.18-2.26,11.46-7.14.31-.66.75-1.27,1.13-1.9.07,1.21.14,2.42.2,3.63-.01,5.08-.18,10.18.01,15.25.23,5.94-1.88,10.61-6.75,14.02-3.77,1.21-7.54,1.59-11.31-.01-4.87-3.36-7.07-7.86-6.74-13.91.35-6.29.11-12.62.12-18.93Z" style="fill: #dad0cb;"/>
  <path d="m115.55,353.11c.18.28.35.56.53.83-.04.18-.06.36-.08.54l-.34.06s-.34-.04-.34-.04c0-.21-.04-.42-.1-.62l.33-.77Z" style="fill: #f1db7a;"/>
  <path d="m43.46,113.22c-.25.16-.5.32-.74.48.25-.16.5-.32.74-.48Z" style="fill: #d0bb3c;"/>
  <path d="m116.04,299.34c-.16.26-.33.52-.49.77-.08-.26-.16-.51-.24-.77.24-.1.48-.11.72,0Z" style="fill: #f1db7a;"/>
  <path d="m115.22,353.88c.07.2.1.41.1.62-.25-.01-.51-.03-.76-.04.22-.19.44-.39.65-.58Z" style="fill: #dee0e1;"/>
  <path d="m148.25,354.54c.28-.21.57-.42.85-.62.12.19.2.39.23.62-.36,0-.72,0-1.08,0Z" style="fill: #d0bb3c;"/>
  <path d="m150.51,354.52c-.25-.03-.5-.05-.75-.08.29-.34.53-.26.75.08Z" style="fill: #efe7e4;"/>
  <path d="m166.22,36.64c.03,5.63-5.1,11.04-10.67,11.24-5.16.19-10.91-5.57-11.03-11.03-.11-5.2,5.32-10.55,10.77-10.6,5.97-.06,10.9,4.63,10.93,10.39Z" style="fill: #5f6c76;"/>
  <path d="m188.67,77.35c0,6.01-5.01,11.16-10.65,10.93-4.77-.19-10.21-6.03-10.3-11.05-.1-5.59,4.97-10.71,10.61-10.7,6.51,0,10.34,4.01,10.34,10.82Z" style="fill: #5f6c76;"/>
  <path d="m121.98,76.76c.1-5.84,4.62-10.34,10.36-10.21,6.58.14,10.91,5.3,10.79,10.72-.13,5.72-5.51,10.97-11.3,10.94-5.12-.03-9.95-5.63-9.84-11.44Z" style="fill: #5f6c76;"/>
  <path d="m95.08,83.72c-5.77,5.04-11.36,5.44-15.87,1.14-4.43-4.24-4.78-10.06-.86-14.6,3.73-4.33,10.1-4.98,14.72-1.49.69.52,1.33,1.11,2,1.67,2.08,4.43,2.47,8.86,0,13.29Z" style="fill: #5f6c76;"/>
  <path d="m98.81,35.18c.34-1.05.69-2.11,1.03-3.16,3.93-7.14,13.65-7.07,18.05-1.48,2.54,3.22,2.4,6.64,1.31,10.16-1.23,3.95-4.18,6.11-8.2,6.4-8.21.6-11.92-3.13-12.18-11.93Z" style="fill: #5f6c76;"/>
  <path d="m87.68,113.74c-2.22-.31-4.55.6-6.69-.57,3.19.01,6.39.03,9.58.04-.85.8-1.91.43-2.88.53Z" style="fill: #d0bb3c;"/>
  <path d="m115.31,263.97c-17.53.82-33.19-4.43-46.57-15.55-12.19-10.13-19.69-23.44-22.82-38.97-.61-3.04-.77-6.33-1-9.52-.86-12.28-.38-24.58-.82-36.85-.1-2.92-.65-5.87-.59-8.84,13.86-.03,27.73-.06,41.59-.1,1.61,0,3.21-.11,4.81-.17,29.55.03,59.11.06,88.66.11,14.09.02,28.18.08,42.27.12-.04,3.22-.08,6.45-.12,9.67-32.88,0-65.75.01-98.63.02-7.97,0-15.94.05-23.91-.03-2.17-.02-3.13.54-3.1,2.92.22,16.51-.52,33.04,1.48,49.5,2.13,17.55,5.85,34.41,18.74,47.71Z" style="fill: #4d5961;"/>
  <path d="m116,354.48c.01-.18.04-.36.08-.54.23.19.47.38.7.56-.26,0-.52-.02-.78-.03Z" style="fill: #d0bb3c;"/>
  <path d="m132.56,353.92c.25.21.5.42.74.62-.26,0-.52,0-.77,0,0-.21.02-.42.03-.63Z" style="fill: #d0bb3c;"/>
  <path d="m115.31,263.97c-12.89-13.3-16.62-30.16-18.74-47.71-1.99-16.47-1.26-32.99-1.48-49.5-.03-2.38.93-2.94,3.1-2.92,7.97.09,15.94.04,23.91.03,32.88,0,65.75-.01,98.63-.02-1.54,10.7-.18,21.5-1.18,32.27-.69,7.35-.81,14.68-3.16,21.77-6.17,18.58-18.18,31.81-35.98,39.94-9.9,4.52-20.24,6.48-31.08,6.33-11.34-.16-22.68-.13-34.02-.19Z" style="fill: #5e6b75;"/>
</svg>